<?xml version="1.0" standalone="no"?>
<!DOCTYPE svg PUBLIC "-//W3C//DTD SVG 20010904//EN"
 "http://www.w3.org/TR/2001/REC-SVG-20010904/DTD/svg10.dtd">
<svg version="1.0" xmlns="http://www.w3.org/2000/svg"
 width="700.000000pt" height="700.000000pt" viewBox="0 0 700.000000 700.000000"
 preserveAspectRatio="xMidYMid meet">
<metadata>
Created by potrace 1.11, written by Peter Selinger 2001-2013
</metadata>
<g transform="translate(0.000000,700.000000) scale(0.100000,-0.100000)"
fill="#000000" stroke="none">
<path d="M3170 6580 c-476 -64 -920 -238 -1300 -510 -558 -399 -965 -993
-1124 -1640 -73 -294 -90 -460 -83 -768 5 -234 18 -347 62 -541 13 -58 23
-106 22 -107 -1 -1 -33 -14 -72 -29 -303 -121 -473 -371 -516 -757 l-12 -113
-47 -52 c-77 -85 -100 -140 -100 -245 0 -57 5 -102 15 -125 23 -54 88 -135
139 -171 l44 -32 3307 0 3306 0 49 46 c165 154 179 338 37 508 -40 49 -41 49
-49 160 -25 356 -188 626 -454 753 l-70 34 23 102 c50 222 58 305 57 592 0
192 -6 307 -18 399 -44 336 -132 625 -282 926 -391 781 -1096 1333 -1949 1525
-295 66 -690 84 -985 45z m770 -164 c577 -91 1074 -338 1489 -741 219 -213
385 -435 520 -695 205 -397 301 -790 302 -1240 0 -254 -24 -454 -81 -671 l-10
-35 -82 9 c-106 12 -257 -3 -364 -37 -43 -14 -79 -24 -80 -23 -1 1 -13 25 -27
52 -81 161 -235 289 -404 334 l-43 12 -1 752 0 752 -796 535 c-438 294 -804
535 -814 535 -10 0 -380 -238 -823 -530 l-805 -530 -1 -757 0 -758 -28 0 c-43
0 -141 -28 -207 -59 -115 -54 -217 -155 -285 -283 l-30 -57 -69 24 c-90 30
-188 45 -300 45 l-89 0 -17 73 c-45 198 -59 335 -59 602 -1 278 8 370 60 605
84 381 281 787 532 1100 444 553 1078 905 1792 996 145 18 578 12 720 -10z
m356 -1116 l723 -485 1 -1587 0 -1588 -185 0 -185 0 -2 692 -3 693 -462 3
-463 2 -2 -562 c-2 -310 -2 -623 0 -696 l2 -132 -825 0 -825 0 0 1588 0 1587
208 137 c114 75 446 294 737 487 292 193 536 350 544 348 7 -1 339 -220 737
-487z m-2376 -2681 c0 -561 -1 -611 -16 -605 -50 19 -110 27 -178 24 -51 -2
-76 1 -76 8 0 6 -17 44 -37 85 -85 171 -288 312 -492 341 -179 26 -344 -34
-487 -176 -44 -45 -89 -94 -100 -109 -19 -27 -21 -28 -64 -18 -25 6 -69 11
-99 11 l-54 0 7 61 c12 100 43 209 87 298 119 242 397 378 697 341 109 -14
185 -40 280 -95 l76 -45 23 82 c48 166 134 289 241 346 48 26 140 56 185 61 4
1 7 -274 7 -610z m3338 554 c115 -54 215 -190 261 -352 11 -40 22 -76 25 -78
2 -2 40 17 84 42 117 68 198 88 357 88 149 1 216 -13 335 -70 107 -51 212
-158 269 -273 44 -90 75 -199 87 -299 l7 -61 -64 0 c-35 0 -80 -4 -100 -9 -36
-8 -37 -8 -80 52 -118 161 -296 257 -479 257 -242 0 -475 -149 -583 -371 l-32
-65 -92 0 -93 1 0 588 0 588 23 -6 c12 -4 46 -18 75 -32z m-770 -785 l-3 -473
-307 -3 -308 -2 0 475 0 475 310 0 310 0 -2 -472z m-3333 -90 c69 -17 177 -81
237 -139 81 -80 112 -148 116 -261 2 -49 8 -88 13 -88 5 0 37 12 72 26 75 31
169 41 221 24 21 -7 53 -26 72 -42 33 -29 34 -33 34 -99 l0 -69 -838 0 -838 0
-26 27 c-66 71 -77 159 -29 234 15 24 45 59 64 78 36 34 37 34 109 28 40 -3
106 -17 146 -32 41 -15 75 -25 76 -23 1 2 22 37 46 78 54 94 157 198 230 233
90 43 187 52 295 25z m4899 -3 c119 -31 219 -115 306 -259 l52 -84 67 25 c41
16 96 27 146 30 l80 5 48 -51 c95 -101 101 -185 23 -278 l-28 -33 -794 0 -794
0 0 100 c0 116 -1 116 95 114 42 -1 84 -11 138 -33 43 -17 79 -31 81 -31 2 0
5 40 8 88 6 106 36 174 109 251 128 135 310 196 463 156z m-1564 -595 l0 -50
-310 0 -310 0 0 50 0 50 310 0 310 0 0 -50z"/>
<path d="M2560 3970 l0 -430 325 0 325 0 0 430 0 430 -325 0 -325 0 0 -430z
m490 110 l0 -170 -162 2 -163 3 -3 168 -2 167 165 0 165 0 0 -170z m0 -350 l0
-30 -162 2 -163 3 -3 28 -3 27 165 0 166 0 0 -30z"/>
<path d="M3860 3970 l0 -430 325 0 325 0 0 430 0 430 -325 0 -325 0 0 -430z
m488 113 l-3 -168 -162 -3 -163 -2 0 170 0 170 165 0 165 0 -2 -167z m0 -350
l-3 -28 -162 -3 -163 -2 0 30 0 30 166 0 165 0 -3 -27z"/>
<path d="M2565 3018 c-3 -7 -4 -204 -3 -438 l3 -425 320 0 320 0 0 435 0 435
-318 3 c-249 2 -319 0 -322 -10z m485 -323 l0 -165 -165 0 -165 0 0 165 0 165
165 0 165 0 0 -165z m0 -355 l0 -30 -165 0 -165 0 0 30 0 30 165 0 165 0 0
-30z"/>
<path d="M750 1210 l0 -80 2890 0 2890 0 0 80 0 80 -2890 0 -2890 0 0 -80z"/>
<path d="M1160 840 l0 -80 2485 0 2485 0 0 80 0 80 -2485 0 -2485 0 0 -80z"/>
<path d="M1737 553 c-4 -3 -7 -39 -7 -80 l0 -73 1910 0 1910 0 0 80 0 80
-1903 0 c-1047 0 -1907 -3 -1910 -7z"/>
</g>
</svg>
