<svg xmlns="http://www.w3.org/2000/svg" width="763" height="145.1" viewBox="0 0 763 145.1"><g stroke="#000" stroke-width="3.348" stroke-miterlimit="10"><path fill="#FFF" d="M734.8 26.7c-.1-18.4-35.2-41.8-54.8-7.2 0 0-20-7.4-20 11.8 0 0-7.3-.6-7.3 10.9h108.2s-5.4-24.1-26.1-15.5z"/><path fill="none" d="M621.6 42.1h-77.8M517 42.1h-38.9"/></g><g fill="none" stroke="#050505" stroke-width="3.171" stroke-linecap="round" stroke-linejoin="round" stroke-miterlimit="10"><path d="M264.7 75.3s6.4-1.2 6.6-8.2M277.9 75.3s-6.4-1.2-6.6-8.2M277.9 75.3s-6.4 1.2-6.6 8.2M264.7 75.3s6.4 1.2 6.6 8.2"/></g><g fill="none" stroke="#000" stroke-width="3.186" stroke-linecap="round" stroke-linejoin="round" stroke-miterlimit="10"><path d="M462.3 108.5v9.5M462.3 134v9.5M479.8 126h-9.6M454.3 126h-9.6M474.7 138.4l-6.8-6.8M456.6 120.4l-6.7-6.8M449.9 138.4l6.7-6.8M467.9 120.4l6.8-6.8"/></g><path fill="#FFF" stroke="#000" stroke-width="3.348" stroke-miterlimit="10" d="M44.3 105c.1-29.8 57-67.7 88.7-11.6 0 0 32.3-12 32.3 19 0 0 11.8-1 11.8 17.6H2.1s8.7-38.9 42.2-25z"/></svg>