<!-- Generator: Adobe Illustrator 18.0.0, SVG Export Plug-In  -->
<svg version="1.1"
	 xmlns="http://www.w3.org/2000/svg" xmlns:xlink="http://www.w3.org/1999/xlink" xmlns:a="http://ns.adobe.com/AdobeSVGViewerExtensions/3.0/"
	 x="0px" y="0px" width="1171.5px" height="86.6px" viewBox="0 0 1171.5 86.6" enable-background="new 0 0 1171.5 86.6"
	 xml:space="preserve">
<defs>
</defs>
<g>

		<path fill="none" stroke="#050505" stroke-width="3.1709" stroke-linecap="round" stroke-linejoin="round" stroke-miterlimit="10" d="
		M302.5,68.4c0,0,6.4-1.2,6.6-8.2"/>

		<path fill="none" stroke="#050505" stroke-width="3.1709" stroke-linecap="round" stroke-linejoin="round" stroke-miterlimit="10" d="
		M315.7,68.4c0,0-6.4-1.2-6.6-8.2"/>

		<path fill="none" stroke="#050505" stroke-width="3.1709" stroke-linecap="round" stroke-linejoin="round" stroke-miterlimit="10" d="
		M315.7,68.4c0,0-6.4,1.2-6.6,8.2"/>

		<path fill="none" stroke="#050505" stroke-width="3.1709" stroke-linecap="round" stroke-linejoin="round" stroke-miterlimit="10" d="
		M302.5,68.4c0,0,6.4,1.2,6.6,8.2"/>
</g>
<g>
	<g>
		<path fill="none" stroke="#050505" stroke-width="2.6704" stroke-miterlimit="10" d="M484.9,72.1c0,0,6.4-1.2,6.6-8.2"/>
		<path fill="none" stroke="#050505" stroke-width="2.6704" stroke-miterlimit="10" d="M498.1,72.1c0,0-6.4-1.2-6.6-8.2"/>
		<path fill="none" stroke="#050505" stroke-width="2.6704" stroke-miterlimit="10" d="M498.1,72.1c0,0-6.4,1.2-6.6,8.2"/>
		<path fill="none" stroke="#050505" stroke-width="2.6704" stroke-miterlimit="10" d="M484.9,72.1c0,0,6.4,1.2,6.6,8.2"/>
	</g>
	<g>

			<line fill="none" stroke="#000000" stroke-width="3.1709" stroke-linecap="round" stroke-linejoin="round" stroke-miterlimit="10" x1="580.8" y1="72.1" x2="556.8" y2="72.1"/>

			<line fill="none" stroke="#000000" stroke-width="3.1709" stroke-linecap="round" stroke-linejoin="round" stroke-miterlimit="10" x1="551" y1="72.1" x2="535.4" y2="72.1"/>

			<line fill="none" stroke="#000000" stroke-width="3.1709" stroke-linecap="round" stroke-linejoin="round" stroke-miterlimit="10" x1="529.6" y1="72.1" x2="520" y2="72.1"/>

			<line fill="none" stroke="#000000" stroke-width="3.1709" stroke-linecap="round" stroke-linejoin="round" stroke-miterlimit="10" x1="514.4" y1="72.1" x2="508.5" y2="72.1"/>
	</g>
</g>
<g>

		<line fill="none" stroke="#000000" stroke-width="3.1864" stroke-linecap="round" stroke-linejoin="round" stroke-miterlimit="10" x1="708.1" y1="1.6" x2="708.1" y2="11.2"/>

		<line fill="none" stroke="#000000" stroke-width="3.1864" stroke-linecap="round" stroke-linejoin="round" stroke-miterlimit="10" x1="708.1" y1="27.1" x2="708.1" y2="36.6"/>

		<line fill="none" stroke="#000000" stroke-width="3.1864" stroke-linecap="round" stroke-linejoin="round" stroke-miterlimit="10" x1="725.6" y1="19.1" x2="716.1" y2="19.1"/>

		<line fill="none" stroke="#000000" stroke-width="3.1864" stroke-linecap="round" stroke-linejoin="round" stroke-miterlimit="10" x1="700.2" y1="19.1" x2="690.6" y2="19.1"/>

		<line fill="none" stroke="#000000" stroke-width="3.1864" stroke-linecap="round" stroke-linejoin="round" stroke-miterlimit="10" x1="720.5" y1="31.5" x2="713.8" y2="24.8"/>

		<line fill="none" stroke="#000000" stroke-width="3.1864" stroke-linecap="round" stroke-linejoin="round" stroke-miterlimit="10" x1="702.5" y1="13.5" x2="695.7" y2="6.7"/>

		<line fill="none" stroke="#000000" stroke-width="3.1864" stroke-linecap="round" stroke-linejoin="round" stroke-miterlimit="10" x1="695.7" y1="31.5" x2="702.5" y2="24.8"/>

		<line fill="none" stroke="#000000" stroke-width="3.1864" stroke-linecap="round" stroke-linejoin="round" stroke-miterlimit="10" x1="713.8" y1="13.5" x2="720.5" y2="6.7"/>
</g>
<g>

		<line fill="none" stroke="#000000" stroke-width="3.1864" stroke-linecap="round" stroke-linejoin="round" stroke-miterlimit="10" x1="19.1" y1="43.6" x2="19.1" y2="53.2"/>

		<line fill="none" stroke="#000000" stroke-width="3.1864" stroke-linecap="round" stroke-linejoin="round" stroke-miterlimit="10" x1="19.1" y1="69.1" x2="19.1" y2="78.6"/>

		<line fill="none" stroke="#000000" stroke-width="3.1864" stroke-linecap="round" stroke-linejoin="round" stroke-miterlimit="10" x1="36.6" y1="61.1" x2="27.1" y2="61.1"/>

		<line fill="none" stroke="#000000" stroke-width="3.1864" stroke-linecap="round" stroke-linejoin="round" stroke-miterlimit="10" x1="11.2" y1="61.1" x2="1.6" y2="61.1"/>

		<line fill="none" stroke="#000000" stroke-width="3.1864" stroke-linecap="round" stroke-linejoin="round" stroke-miterlimit="10" x1="31.5" y1="73.5" x2="24.8" y2="66.8"/>

		<line fill="none" stroke="#000000" stroke-width="3.1864" stroke-linecap="round" stroke-linejoin="round" stroke-miterlimit="10" x1="13.5" y1="55.5" x2="6.7" y2="48.7"/>

		<line fill="none" stroke="#000000" stroke-width="3.1864" stroke-linecap="round" stroke-linejoin="round" stroke-miterlimit="10" x1="6.7" y1="73.5" x2="13.5" y2="66.8"/>

		<line fill="none" stroke="#000000" stroke-width="3.1864" stroke-linecap="round" stroke-linejoin="round" stroke-miterlimit="10" x1="24.8" y1="55.5" x2="31.5" y2="48.7"/>
</g>
<path fill="#FFFFFF" stroke="#000000" stroke-width="2.8699" stroke-miterlimit="10" d="M1143.6,69.7c-0.1-18.4-35.2-41.8-54.8-7.2
	c0,0-20-7.4-20,11.8c0,0-7.3-0.6-7.3,10.9c8.4,0,108.2,0,108.2,0S1164.4,61.1,1143.6,69.7z"/>
</svg>
