<svg xmlns="http://www.w3.org/2000/svg" width="302.4" height="213.3" viewBox="0 0 302.4 213.3"><path fill="none" stroke="#000" stroke-width="2.87" stroke-miterlimit="10" d="M111 1.4C50.5 1.4 1.4 41 1.4 89.9 1.4 109.2 9 127 22 141.5c-1.9 6.8-6 15.3-14.8 20.8-15.2 9.6 22.9 17.9 39.5-.8 18 10.6 40.2 16.8 64.2 16.8 60.5 0 109.6-39.6 109.6-88.4S171.5 1.4 111 1.4z"/><path fill="#FFF" stroke="#000" stroke-width="2.87" stroke-miterlimit="10" d="M297.9 201.1c-8-5.1-11.5-13.1-13-19.1 9.1-11.1 14.4-24.6 14.4-39.1 0-38.1-36.6-69-81.7-69s-81.7 30.9-81.7 69 36.6 69 81.7 69c17.1 0 32.9-4.4 46.1-12 13.9 16.7 47.4 9.5 34.2 1.2z"/></svg>