<svg xmlns="http://www.w3.org/2000/svg" width="313.6" height="229.6" viewBox="0 -20 343.6 229.6"><g fill="none" stroke="#000" stroke-width="3" stroke-linecap="round" stroke-linejoin="round" stroke-miterlimit="10"><path d="M271 153.3s4.5-.9 4.7-5.8M280.3 153.3s-4.5-.9-4.6-5.8M280.3 153.3s-4.5.9-4.6 5.7M271 153.3s4.5.9 4.7 5.7"/></g><g fill="none" stroke="#000" stroke-width="3" stroke-linecap="round" stroke-linejoin="round" stroke-miterlimit="10"><path d="M1.5 128.8s4.5-.9 4.7-5.8M10.8 128.8s-4.5-.9-4.6-5.8M10.8 128.8s-4.5.9-4.6 5.7M1.5 128.8s4.5.9 4.7 5.7"/></g><g fill="none" stroke="#000" stroke-width="3" stroke-linecap="round" stroke-linejoin="round" stroke-miterlimit="10"><path d="M25.2 10.3s4.5-.9 4.7-5.8M34.5 10.3s-4.5-.9-4.6-5.8M34.5 10.3s-4.5.9-4.6 5.7M25.2 10.3s4.5.9 4.7 5.7"/></g><g fill="none" stroke="#000" stroke-width="3" stroke-linecap="round" stroke-linejoin="round" stroke-miterlimit="10"><path d="M304.7 7.3s4.5-.9 4.7-5.8M314 7.3s-4.5-.9-4.6-5.8M314 7.3s-4.5.9-4.6 5.7M304.7 7.3s4.5.9 4.7 5.7"/></g><g fill="none" stroke="#000" stroke-width="3" stroke-linecap="round" stroke-linejoin="round" stroke-miterlimit="10"><path d="M305.7 127.3s4.5-.9 4.7-5.8M315 127.3s-4.5-.9-4.6-5.8M315 127.3s-4.5.9-4.6 5.7M305.7 127.3s4.5.9 4.7 5.7"/></g><g fill="none" stroke="#000" stroke-width="3" stroke-linecap="round" stroke-linejoin="round" stroke-miterlimit="10"><path d="M44.7 99.3s4.5-.9 4.7-5.8M54 99.3s-4.5-.9-4.6-5.8M54 99.3s-4.5.9-4.6 5.7M44.7 99.3s4.5.9 4.7 5.7"/></g><g stroke="#000" stroke-width="3" stroke-miterlimit="10"><path fill="#EFC223" d="M176.6 17.3h-28.3c-.7 0-1.3.6-1.3 1.3v8.3c0 .7.6 1.3 1.3 1.3h9.6v13.5c0 .6.5 1.1 1.1 1.1h6.9c.6 0 1.1-.5 1.1-1.1V28.3h9.6c.7 0 1.3-.6 1.3-1.3v-8.3c.1-.8-.5-1.4-1.3-1.4z"/><g fill="#EFC223"><path d="M118.9 185.5c-3.7 5.9-9 9.1-12 7.3-2.9-1.8-2.3-8.1 1.3-14 3.7-5.9 5.5-8.9 10.9-5.5 5.3 3.3 3.5 6.3-.2 12.2zM207.2 185.5c3.7 5.9 9 9.1 12 7.3 2.9-1.8 2.3-8.1-1.3-14s-5.5-8.9-10.9-5.5-3.5 6.3.2 12.2z"/></g><path fill="#FFF" d="M250.2 31.7l-12.1-10c-.4-.3-.8-.4-1.3-.4s-.9.3-1.2.6l-6.1 7.4c-.3.4-.4.8-.4 1.3s.3.9.6 1.2l3 2.5-21.9 24.4c-13-10.6-29.6-17-47.7-17-18.6 0-35.6 6.7-48.8 17.9l-22.2-26 3.4-2.8c.4-.3.6-.7.6-1.2s-.1-.9-.4-1.3l-6.1-7.4c-.3-.4-.7-.6-1.2-.6s-.9.1-1.3.4L75 30.7c-.4.3-.6.7-.6 1.2s.1.9.4 1.3l6.1 7.4c.3.4.7.6 1.2.6h.2c.4 0 .8-.1 1.1-.4l2.6-2.1L108.3 65c-12.9 13.6-20.9 31.9-20.9 52.1 0 41.7 33.8 75.5 75.5 75.5s75.5-33.8 75.5-75.5c0-20.7-8.3-39.4-21.8-53.1l22.2-24.7 3 2.4c.3.3.7.4 1.1.4h.2c.5 0 .9-.3 1.2-.6l6.1-7.4c.3-.4.4-.8.4-1.3-.1-.4-.3-.8-.6-1.1zm-155-2.1v-.1.1c0-.1 0-.1 0 0zm-6.9-8.5h-.2.2c-.1 0-.1 0 0 0zM75.2 31.9v0c0 .1 0 0 0 0zm6.8 8.4h.1s0 .1-.1 0c.1.1 0 0 0 0zm154.9-18.2h-.2.2c-.1 0-.1 0 0 0zm-7 8.3v0c0 .1 0 .1 0 0zm13 10.9h.1s0 .1-.1 0c0 .1 0 0 0 0zm7-8.3v-.1.1z"/><circle fill="#FFF" cx="162.7" cy="117.1" r="62.1"/><path fill="#EFC223" d="M129.6 36.4c-11.5-13.9-31.8-16.2-45.3-5-6.5 5.4-10.5 13.1-11.2 21.7-.7 8.6 2 17 7.6 23.7.4.5 1 .7 1.6.7.5 0 .9-.2 1.3-.5l45.8-37.9c.4-.3.7-.8.7-1.4 0-.3-.2-.9-.5-1.3zM195.5 36.4c11.5-13.9 31.8-16.2 45.3-5 6.5 5.4 10.5 13.1 11.2 21.7.7 8.6-2 17-7.6 23.7-.4.5-1 .7-1.6.7-.5 0-.9-.2-1.3-.5l-45.8-37.9c-.4-.3-.7-.8-.7-1.4 0-.3.1-.9.5-1.3z"/><circle fill="#EFC223" cx="162.3" cy="116.6" r="11.4"/><path fill="#FFF" stroke-linecap="round" d="M162.7 67.3v14M162.7 154.1v14M213.1 117.7h-14M126.3 117.7h-14M208.2 139.3l-12.6-6M129.8 102.1l-12.6-6M191.8 158.8l-8.1-11.4M141.7 88l-8.1-11.4M190.8 75.9L183 87.5M142.4 147.9l-7.9 11.6M207.7 95.1l-12.5 6.3M130.2 134l-12.5 6.3"/></g><path fill="#FFF" stroke="#000" stroke-width="3" stroke-linecap="round" stroke-linejoin="round" stroke-miterlimit="10" d="M296.1 89.9h21c0-5.6-3.6-5.3-3.6-5.3 0-9.4-9.8-5.8-9.8-5.8-9.6-17-26.8-5.5-26.8 3.5-6.7-7-13.6-.7-13.3 3.5-3.6-5.1-10.7-.2-8.8 4.3-6.8-1.8-5.6 4.8-5.6 4.8h21"/><path fill="#FFF" stroke="#000" stroke-width="3" stroke-linejoin="round" stroke-miterlimit="10" d="M15.5 61c0-7.7 14.8-17.6 23-3 0 0 8.4-3.1 8.4 4.9 0 0 3.1-.3 3.1 4.6H4.5s2.3-10.1 11-6.5z"/><path fill="#FFF" stroke="#000" stroke-width="3" stroke-linecap="round" stroke-linejoin="round" stroke-miterlimit="10" d="M69.8 175.9h68.1s1.7-10-8.6-7.3c3-6.8-7.9-14.3-13.4-6.5.5-6.5-10-16.1-20.3-5.4-.1-13.8-26.4-31.3-41-5.4 0 0-15-5.6-15 8.8 0 0-5.5-.5-5.5 8.2h59.3"/><g fill="none" stroke="#000" stroke-width="3" stroke-linecap="round" stroke-linejoin="round" stroke-miterlimit="10"><path d="M271 153.3s4.5-.9 4.7-5.8M280.3 153.3s-4.5-.9-4.6-5.8M280.3 153.3s-4.5.9-4.6 5.7M271 153.3s4.5.9 4.7 5.7"/></g><g fill="none" stroke="#000" stroke-width="3" stroke-linecap="round" stroke-linejoin="round" stroke-miterlimit="10"><path d="M1.5 128.8s4.5-.9 4.7-5.8M10.8 128.8s-4.5-.9-4.6-5.8M10.8 128.8s-4.5.9-4.6 5.7M1.5 128.8s4.5.9 4.7 5.7"/></g><g fill="none" stroke="#000" stroke-width="3" stroke-linecap="round" stroke-linejoin="round" stroke-miterlimit="10"><path d="M25.2 10.3s4.5-.9 4.7-5.8M34.5 10.3s-4.5-.9-4.6-5.8M34.5 10.3s-4.5.9-4.6 5.7M25.2 10.3s4.5.9 4.7 5.7"/></g><g fill="none" stroke="#000" stroke-width="3" stroke-linecap="round" stroke-linejoin="round" stroke-miterlimit="10"><path d="M304.7 7.3s4.5-.9 4.7-5.8M314 7.3s-4.5-.9-4.6-5.8M314 7.3s-4.5.9-4.6 5.7M304.7 7.3s4.5.9 4.7 5.7"/></g><g fill="none" stroke="#000" stroke-width="3" stroke-linecap="round" stroke-linejoin="round" stroke-miterlimit="10"><path d="M305.7 127.3s4.5-.9 4.7-5.8M315 127.3s-4.5-.9-4.6-5.8M315 127.3s-4.5.9-4.6 5.7M305.7 127.3s4.5.9 4.7 5.7"/></g><g fill="none" stroke="#000" stroke-width="3" stroke-linecap="round" stroke-linejoin="round" stroke-miterlimit="10"><path d="M44.7 99.3s4.5-.9 4.7-5.8M54 99.3s-4.5-.9-4.6-5.8M54 99.3s-4.5.9-4.6 5.7M44.7 99.3s4.5.9 4.7 5.7"/></g><g stroke="#000" stroke-width="3" stroke-miterlimit="10"><path fill="#EFC223" d="M176.6 17.3h-28.3c-.7 0-1.3.6-1.3 1.3v8.3c0 .7.6 1.3 1.3 1.3h9.6v13.5c0 .6.5 1.1 1.1 1.1h6.9c.6 0 1.1-.5 1.1-1.1V28.3h9.6c.7 0 1.3-.6 1.3-1.3v-8.3c.1-.8-.5-1.4-1.3-1.4z"/><g fill="#EFC223"><path d="M118.9 185.5c-3.7 5.9-9 9.1-12 7.3-2.9-1.8-2.3-8.1 1.3-14 3.7-5.9 5.5-8.9 10.9-5.5 5.3 3.3 3.5 6.3-.2 12.2zM207.2 185.5c3.7 5.9 9 9.1 12 7.3 2.9-1.8 2.3-8.1-1.3-14s-5.5-8.9-10.9-5.5-3.5 6.3.2 12.2z"/></g><path fill="#FFF" d="M250.2 31.7l-12.1-10c-.4-.3-.8-.4-1.3-.4s-.9.3-1.2.6l-6.1 7.4c-.3.4-.4.8-.4 1.3s.3.9.6 1.2l3 2.5-21.9 24.4c-13-10.6-29.6-17-47.7-17-18.6 0-35.6 6.7-48.8 17.9l-22.2-26 3.4-2.8c.4-.3.6-.7.6-1.2s-.1-.9-.4-1.3l-6.1-7.4c-.3-.4-.7-.6-1.2-.6s-.9.1-1.3.4L75 30.7c-.4.3-.6.7-.6 1.2s.1.9.4 1.3l6.1 7.4c.3.4.7.6 1.2.6h.2c.4 0 .8-.1 1.1-.4l2.6-2.1L108.3 65c-12.9 13.6-20.9 31.9-20.9 52.1 0 41.7 33.8 75.5 75.5 75.5s75.5-33.8 75.5-75.5c0-20.7-8.3-39.4-21.8-53.1l22.2-24.7 3 2.4c.3.3.7.4 1.1.4h.2c.5 0 .9-.3 1.2-.6l6.1-7.4c.3-.4.4-.8.4-1.3-.1-.4-.3-.8-.6-1.1zm-155-2.1v-.1.1c0-.1 0-.1 0 0zm-6.9-8.5h-.2.2c-.1 0-.1 0 0 0zM75.2 31.9v0c0 .1 0 0 0 0zm6.8 8.4h.1s0 .1-.1 0c.1.1 0 0 0 0zm154.9-18.2h-.2.2c-.1 0-.1 0 0 0zm-7 8.3v0c0 .1 0 .1 0 0zm13 10.9h.1s0 .1-.1 0c0 .1 0 0 0 0zm7-8.3v-.1.1z"/><circle fill="#FFF" cx="162.7" cy="117.1" r="62.1"/><path fill="#EFC223" d="M129.6 36.4c-11.5-13.9-31.8-16.2-45.3-5-6.5 5.4-10.5 13.1-11.2 21.7-.7 8.6 2 17 7.6 23.7.4.5 1 .7 1.6.7.5 0 .9-.2 1.3-.5l45.8-37.9c.4-.3.7-.8.7-1.4 0-.3-.2-.9-.5-1.3zM195.5 36.4c11.5-13.9 31.8-16.2 45.3-5 6.5 5.4 10.5 13.1 11.2 21.7.7 8.6-2 17-7.6 23.7-.4.5-1 .7-1.6.7-.5 0-.9-.2-1.3-.5l-45.8-37.9c-.4-.3-.7-.8-.7-1.4 0-.3.1-.9.5-1.3z"/><circle fill="#EFC223" cx="162.3" cy="116.6" r="11.4"/><path fill="#FFF" stroke-linecap="round" d="M162.7 67.3v14M162.7 154.1v14M213.1 117.7h-14M126.3 117.7h-14M208.2 139.3l-12.6-6M129.8 102.1l-12.6-6M191.8 158.8l-8.1-11.4M141.7 88l-8.1-11.4M190.8 75.9L183 87.5M142.4 147.9l-7.9 11.6M207.7 95.1l-12.5 6.3M130.2 134l-12.5 6.3"/></g><path fill="#FFF" stroke="#000" stroke-width="3" stroke-linecap="round" stroke-linejoin="round" stroke-miterlimit="10" d="M296.1 89.9h21c0-5.6-3.6-5.3-3.6-5.3 0-9.4-9.8-5.8-9.8-5.8-9.6-17-26.8-5.5-26.8 3.5-6.7-7-13.6-.7-13.3 3.5-3.6-5.1-10.7-.2-8.8 4.3-6.8-1.8-5.6 4.8-5.6 4.8h21"/><path fill="#FFF" stroke="#000" stroke-width="3" stroke-linejoin="round" stroke-miterlimit="10" d="M15.5 61c0-7.7 14.8-17.6 23-3 0 0 8.4-3.1 8.4 4.9 0 0 3.1-.3 3.1 4.6H4.5s2.3-10.1 11-6.5z"/><path fill="#FFF" stroke="#000" stroke-width="3" stroke-linecap="round" stroke-linejoin="round" stroke-miterlimit="10" d="M69.8 175.9h68.1s1.7-10-8.6-7.3c3-6.8-7.9-14.3-13.4-6.5.5-6.5-10-16.1-20.3-5.4-.1-13.8-26.4-31.3-41-5.4 0 0-15-5.6-15 8.8 0 0-5.5-.5-5.5 8.2h59.3"/></svg>