<svg xmlns="http://www.w3.org/2000/svg" width="299.7" height="221" viewBox="0 0 299.7 221"><path fill="none" stroke="#000" stroke-width="3" stroke-linejoin="round" stroke-miterlimit="10" d="M159.8 206.8c8.2 2 16.6 4.2 25.2 6.8M86.8 195.6c8.6.5 17.6 1.4 27 2.6"/><g fill="#EFC223" stroke="#000" stroke-width="2" stroke-miterlimit="10"><path d="M198 158.3l-3.7-63.6h-5.6l-3.6 63.6M182.2 161.3v26.1h18.7v-26.1"/><path d="M180.9 158.6h21.3v3.3h-21.3z"/></g><path fill="#EFC223" stroke="#000" stroke-width="2.123" stroke-miterlimit="10" d="M205.5 149.8h93.2v37.6h-93.2z"/><path fill="none" stroke="#000" stroke-width="2.123" stroke-miterlimit="10" d="M205.5 158.3h93.4M200.5 178.3c1.6-.1 3.2-.1 4.9-.2"/><path fill="none" stroke="#000" stroke-width="2" stroke-miterlimit="10" d="M160.1 181.3c6.8-.8 14-1.4 21.8-2"/><path fill="none" stroke="#000" stroke-width="3" stroke-miterlimit="10" d="M90.7 195.8s7.7-3.1 23.1-6.7"/><g fill="none" stroke="#000" stroke-width="3" stroke-linejoin="round" stroke-miterlimit="10"><path d="M213.3 39.9h-47.1s-1.2-6.9 6-5c-2.1-4.7 5.5-9.9 9.3-4.5-.3-4.5 7-11.2 14.1-3.7 0-9.6 18.3-21.7 28.4-3.7 0 0 10.4-3.9 10.4 6.1 0 0 3.8-.3 3.8 5.6h-34.3M245.5 34.6h23.7M277.3 34.6h11.9"/></g><path fill="none" stroke="#000" stroke-width="3" stroke-linecap="round" stroke-linejoin="round" stroke-miterlimit="10" d="M186.2 133.5c-1.6 1.8-2.6 3.9-4.1 6.4 0 0-16.3-6.1-16.3 9.6 0 0-5.8-2.3-5.8 7.1M243.5 149.8c-3.2-4.3-7.9-7.7-16.6-4.1-.1-11.2-16-24.6-30.7-19.1"/><path fill="none" stroke="#000" stroke-width="3" stroke-linejoin="round" stroke-miterlimit="10" d="M114.1 151c-8.6-5.4-18.2-6.8-27.4-5.2"/><g stroke="#000" stroke-width="2" stroke-linejoin="round" stroke-miterlimit="10"><path fill="none" stroke-linecap="round" d="M40.7 51.5h45.9v147.9H40.7z"/><path fill="#FFF" stroke-linecap="round" d="M40.7 37.2h45.9v8.7H40.7z"/><g fill="none"><path d="M40.5 61.9h46.1M40.5 72.5h46.1M40.5 83h46.1M40.5 93.6h46.1M40.5 104.2h46.1M86.6 114.8H40.5M40.5 125.4h46.1M40.5 136h46.1M40.5 146.5h46.1M40.5 157.1h46.1M40.5 167.7h46.1M40.5 178.3h46.1M40.5 188.8h46.1"/></g><g fill="none" stroke-linecap="round"><path d="M40.8 65h45.7M40.8 75.6h45.7M40.8 86.1h45.7M40.8 96.7h45.7M40.8 107.3h45.7M40.8 117.9h45.7M40.8 128.5h45.7M40.8 139h45.7M40.8 149.6h45.7M40.8 160.2h45.7M40.8 170.8h45.7M40.8 181.3h45.7M40.8 191.9h45.7"/></g><path fill="none" d="M42.9 45.6V52M46.7 45.6V52M50.5 45.6V52M54.2 45.6V52M58 45.6V52M61.8 45.6V52M65.6 45.6V52M69.4 45.6V52M73.2 45.6V52M76.9 45.6V52M80.7 45.6V52M84.5 45.6V52M47.5 65.1h3.6v4h-3.6zM53.6 65.1h3.6v4h-3.6zM70.1 65.1h3.6v4h-3.6zM76.2 65.1h3.6v4h-3.6zM47.5 75.9h3.6v4h-3.6zM53.6 75.9h3.6v4h-3.6zM70.1 75.9h3.6v4h-3.6zM76.2 75.9h3.6v4h-3.6zM47.5 86.2h3.6v4h-3.6zM53.6 86.2h3.6v4h-3.6zM70.1 86.2h3.6v4h-3.6zM76.2 86.2h3.6v4h-3.6zM47.5 97h3.6v4h-3.6zM53.6 97h3.6v4h-3.6zM70.1 97h3.6v4h-3.6zM76.2 97h3.6v4h-3.6zM47.5 107.3h3.6v4h-3.6zM53.6 107.3h3.6v4h-3.6zM70.1 107.3h3.6v4h-3.6zM76.2 107.3h3.6v4h-3.6zM47.5 118.1h3.6v4h-3.6zM53.6 118.1h3.6v4h-3.6zM70.1 118.1h3.6v4h-3.6zM76.2 118.1h3.6v4h-3.6zM47.5 128.4h3.6v4h-3.6zM53.6 128.4h3.6v4h-3.6zM70.1 128.4h3.6v4h-3.6zM76.2 128.4h3.6v4h-3.6zM47.5 139.2h3.6v4h-3.6zM53.6 139.2h3.6v4h-3.6zM70.1 139.2h3.6v4h-3.6zM76.2 139.2h3.6v4h-3.6zM47.5 150h3.6v4h-3.6zM53.6 150h3.6l-3.6 3.9zM70.1 150h3.6v4h-3.6zM76.2 150h3.6v4h-3.6zM47.5 160.2h3.6v4h-3.6zM53.6 160.2h3.6v4h-3.6zM70.1 160.2h3.6v4h-3.6zM76.2 160.2h3.6v4h-3.6zM47.5 171.1h3.6v4h-3.6zM53.6 171.1h3.6v4h-3.6zM70.1 171.1h3.6v4h-3.6zM76.2 171.1h3.6v4h-3.6zM47.5 181.3h3.6v4h-3.6zM53.6 181.3h3.6v4h-3.6zM70.1 181.3h3.6v4h-3.6zM76.2 181.3h3.6v4h-3.6zM47.5 192.1h3.6v4h-3.6zM53.6 192.1h3.6v4h-3.6zM70.1 192.1h3.6v4h-3.6zM76.2 192.1h3.6v4h-3.6z"/></g><g stroke="#000" stroke-width="2" stroke-linejoin="round" stroke-miterlimit="10"><path fill="none" stroke-linecap="round" d="M114.2 72.1h45.9V220h-45.9z"/><path fill="#FFF" stroke-linecap="round" d="M114.2 57.7h45.9v8.7h-45.9z"/><g fill="none"><path d="M114 82.5h46.1M114 93.1h46.1M114 103.6h46.1M114 114.2h46.1M114 124.8h46.1M160.1 135.4H114M114 146h46.1M114 156.5h46.1M114 167.1h46.1M114 177.7h46.1M114 188.3h46.1M114 198.9h46.1M114 209.4h46.1"/></g><g fill="none" stroke-linecap="round"><path d="M114.4 85.6H160M114.4 96.1H160M114.4 106.7H160M114.4 117.3H160M114.4 127.9H160M114.4 138.5H160M114.4 149.1H160M114.4 159.6H160M114.4 170.2H160M114.4 180.8H160M114.4 191.4H160M114.4 201.9H160M114.4 212.5H160"/></g><path fill="none" d="M116.4 66.2v6.4M120.2 66.2v6.4M124 66.2v6.4M127.8 66.2v6.4M131.6 66.2v6.4M135.3 66.2v6.4M139.1 66.2v6.4M142.9 66.2v6.4M146.7 66.2v6.4M150.5 66.2v6.4M154.3 66.2v6.4M158 66.2v6.4M121 85.7h3.6v4H121zM127.2 85.7h3.6v4h-3.6zM143.6 85.7h3.6v4h-3.6zM149.8 85.7h3.6v4h-3.6zM121 96.5h3.6v4H121zM127.2 96.5h3.6v4h-3.6zM143.6 96.5h3.6v4h-3.6zM149.8 96.5h3.6v4h-3.6zM121 106.8h3.6v4H121zM127.2 106.8h3.6v4h-3.6zM143.6 106.8h3.6v4h-3.6zM149.8 106.8h3.6v4h-3.6zM121 117.6h3.6v4H121zM127.2 117.6h3.6v4h-3.6zM143.6 117.6h3.6v4h-3.6zM149.8 117.6h3.6v4h-3.6zM121 127.9h3.6v4H121zM127.2 127.9h3.6v4h-3.6zM143.6 127.9h3.6v4h-3.6zM149.8 127.9h3.6v4h-3.6zM121 138.7h3.6v4H121zM127.2 138.7h3.6v4h-3.6zM143.6 138.7h3.6v4h-3.6zM149.8 138.7h3.6v4h-3.6zM121 149h3.6v4H121zM127.2 149h3.6v4h-3.6zM143.6 149h3.6v4h-3.6zM149.8 149h3.6v4h-3.6zM121 159.8h3.6v4H121zM127.2 159.8h3.6v4h-3.6zM143.6 159.8h3.6v4h-3.6zM149.8 159.8h3.6v4h-3.6zM121 170.5h3.6v4H121zM127.2 170.5h3.6v4h-3.6zM143.6 170.5h3.6v4h-3.6zM149.8 170.5h3.6v4h-3.6zM121 180.8h3.6v4H121zM127.2 180.8h3.6v4h-3.6zM143.6 180.8h3.6v4h-3.6zM149.8 180.8h3.6v4h-3.6zM121 191.6h3.6v4H121zM127.2 191.6h3.6v4h-3.6zM143.6 191.6h3.6v4h-3.6zM149.8 191.6h3.6v4h-3.6zM121 201.9h3.6v4H121zM127.2 201.9h3.6v4h-3.6zM143.6 201.9h3.6v4h-3.6zM149.8 201.9h3.6v4h-3.6zM121 212.7h3.6v4H121zM127.2 212.7h3.6v4h-3.6zM143.6 212.7h3.6v4h-3.6zM149.8 212.7h3.6v4h-3.6z"/></g><g fill="none" stroke="#000" stroke-width="1.062" stroke-miterlimit="10"><path d="M210.4 164.2h2.6v4.2h-2.6zM210.4 167.2h2.6M217.1 164.2h2.6v4.2h-2.6zM217.1 167.2h2.6M223.8 164.2h2.6v4.2h-2.6zM223.8 167.2h2.6M230.6 164.2h2.6v4.2h-2.6zM230.6 167.2h2.6M237.3 164.2h2.6v4.2h-2.6zM237.3 167.2h2.6M244 164.2h2.6v4.2H244zM244 167.2h2.6M250.8 164.2h2.6v4.2h-2.6zM250.8 167.2h2.5M210.4 171.9h2.6v4.2h-2.6zM210.4 174.8h2.6M217.1 171.9h2.6v4.2h-2.6zM217.1 174.8h2.6M223.8 171.9h2.6v4.2h-2.6zM223.8 174.8h2.6M230.6 171.9h2.6v4.2h-2.6zM230.6 174.8h2.6"/><g><path d="M237.3 171.9h2.6v4.2h-2.6zM237.3 174.8h2.6"/></g><g><path d="M244 171.9h2.6v4.2H244zM244 174.8h2.6"/></g><g><path d="M250.8 171.9h2.6v4.2h-2.6zM250.8 174.8h2.5"/></g><g><path d="M210.4 179.7h2.6v4.2h-2.6zM210.4 182.6h2.6M217.1 179.7h2.6v4.2h-2.6zM217.1 182.6h2.6M223.8 179.7h2.6v4.2h-2.6zM223.8 182.6h2.6M230.6 179.7h2.6v4.2h-2.6zM230.6 182.6h2.6"/><g><path d="M237.3 179.7h2.6v4.2h-2.6zM237.3 182.6h2.6"/></g><g><path d="M244 179.7h2.6v4.2H244zM244 182.6h2.6"/></g><g><path d="M250.8 179.7h2.6v4.2h-2.6zM250.8 182.6h2.5"/></g></g><g><path d="M257.5 164.2h2.6v4.2h-2.6zM257.5 167.2h2.6"/></g><g><path d="M264.2 164.2h2.6v4.2h-2.6zM264.2 167.2h2.6"/></g><g><path d="M270.9 164.2h2.6v4.2h-2.6zM270.9 167.2h2.6"/></g><g><path d="M277.7 164.2h2.6v4.2h-2.6zM277.7 167.2h2.6"/></g><g><path d="M284.4 164.2h2.6v4.2h-2.6zM284.4 167.2h2.6"/></g><g><path d="M291.1 164.2h2.6v4.2h-2.6zM291.1 167.2h2.6"/></g><g><path d="M257.5 171.9h2.6v4.2h-2.6zM257.5 174.8h2.6"/></g><g><path d="M264.2 171.9h2.6v4.2h-2.6zM264.2 174.8h2.6"/></g><g><path d="M270.9 171.9h2.6v4.2h-2.6zM270.9 174.8h2.6"/></g><g><path d="M277.7 171.9h2.6v4.2h-2.6zM277.7 174.8h2.6"/></g><g><path d="M284.4 171.9h2.6v4.2h-2.6zM284.4 174.8h2.6"/></g><g><path d="M291.1 171.9h2.6v4.2h-2.6zM291.1 174.8h2.6"/></g><g><path d="M257.5 179.7h2.6v4.2h-2.6zM257.5 182.6h2.6"/></g><g><path d="M264.2 179.7h2.6v4.2h-2.6zM264.2 182.6h2.6"/></g><g><path d="M270.9 179.7h2.6v4.2h-2.6zM270.9 182.6h2.6"/></g><g><path d="M277.7 179.7h2.6v4.2h-2.6zM277.7 182.6h2.6"/></g><g><path d="M284.4 179.7h2.6v4.2h-2.6zM284.4 182.6h2.6"/></g><g><path d="M291.1 179.7h2.6v4.2h-2.6zM291.1 182.6h2.6"/></g></g><path fill="none" stroke="#000" stroke-width="3" stroke-linecap="round" stroke-linejoin="round" stroke-miterlimit="10" d="M119.3 28.7s4.8-1 5-6.2m4.9 6.2s-4.8-1-4.9-6.2m4.9 6.2s-4.8 1-4.9 6.1m-5-6.1s4.8 1 5 6.1M15.3 134.8s4.8-1 5-6.2m4.9 6.2s-4.8-1-4.9-6.2m4.9 6.2s-4.8 1-4.9 6.1m-5-6.1s4.8 1 5 6.1M275.3 65s4.8-1 5-6.2m4.9 6.2s-4.8-1-4.9-6.2m4.9 6.2s-4.8 1-4.9 6.1m-5-6.1s4.8 1 5 6.1"/><path fill="none" stroke="#000" stroke-width="3" stroke-linecap="round" stroke-linejoin="round" stroke-miterlimit="10" d="M119.3 28.7s4.8-1 5-6.2m4.9 6.2s-4.8-1-4.9-6.2m4.9 6.2s-4.8 1-4.9 6.1m-5-6.1s4.8 1 5 6.1M233.2 74.4v7.4m0 12.8v7.4M247 88.2h-7.4m-12.8 0h-7.4m23.3 9.9l-5.4-5.3m-8.9-9.1l-5.4-5.3m0 19.7l5.4-5.3m8.9-9.1l5.4-5.3M15.3 1.5v7.4m0 12.8v7.4m13.8-13.8h-7.4m-12.8 0H1.5m23.4 9.9l-5.4-5.3m-9-9.1L5.1 5.5m0 19.7l5.4-5.3m8.9-9.1l5.4-5.3"/></svg>