<svg xmlns="http://www.w3.org/2000/svg" width="313.6" height="229.6" viewBox="0 -10 313.6 219.6"><path fill="#EFC223" stroke="#000" stroke-width="3" stroke-miterlimit="10" d="M77.7 118.6l62.1-2.1 66.8 12.7c8.1 2.4 16.4-1.1 18.4-7.8l4.6-15.4 4.6-15.4c2-6.7-3-14.2-11.1-16.6l-62.8-26.1L109.7 12l-32 106.6z"/><path fill="#FFF" stroke="#000" stroke-width="3" stroke-miterlimit="10" d="M174.2 123.1l32.4 6.2c8.1 2.4 16.4-1.1 18.4-7.8l4.6-15.4 4.6-15.4c2-6.7-3-14.2-11.1-16.6l-28.5-11.8"/><path fill="#FFF" stroke="#000" stroke-width="3" stroke-linecap="round" stroke-linejoin="round" stroke-miterlimit="10" d="M121.8 20.3l-29.2 97.2"/><path fill="none" stroke="#000" stroke-width="3" stroke-linecap="round" stroke-linejoin="round" stroke-miterlimit="10" d="M209.1 130.3l-42.8 71.4-15.2-4.6 42.8-134.2M170.2 135.9l-8.6-2.6 3.1-11.5"/><path fill="#FFF" stroke="#000" stroke-width="3" stroke-linecap="round" stroke-linejoin="round" stroke-miterlimit="10" d="M211.2 83l-9.4-2.8M209.2 89.7l-9.4-2.8M207.2 96.4l-9.5-2.8M205.2 103.1l-9.5-2.8M203.2 109.8l-9.5-2.8M201.2 116.5l-9.5-2.8"/><g fill="#FFF" stroke="#000" stroke-width="3" stroke-linecap="round" stroke-linejoin="round" stroke-miterlimit="10"><path d="M95.5 29.6L90 47.9M80.9 78.5l-5.5 18.3M51.9 53.1l18.3 5.5M54.6 79.8l16.8-9M77.9 49.2l-9.1-16.9"/></g><path fill="none" stroke="#000" stroke-width="3" stroke-linecap="round" stroke-linejoin="round" stroke-miterlimit="10" d="M95.7 57.3c-4.7-1.4-9.7 1.3-11.1 6s1.3 9.7 6 11.1"/><g fill="none" stroke="#000" stroke-width="3" stroke-linecap="round" stroke-linejoin="round" stroke-miterlimit="10"><path d="M30.8 175.1s8.6-1.6 8.8-10.9M48.5 175.1s-8.6-1.6-8.8-10.9M48.5 175.1s-8.6 1.6-8.8 10.9M30.8 175.1s8.6 1.6 8.8 10.9"/></g><g fill="none" stroke="#000" stroke-width="3" stroke-linecap="round" stroke-linejoin="round" stroke-miterlimit="10"><path d="M220.8 165.1s8.6-1.6 8.8-10.9M238.5 165.1s-8.6-1.6-8.8-10.9M238.5 165.1s-8.6 1.6-8.8 10.9M220.8 165.1s8.6 1.6 8.8 10.9"/></g><g fill="none" stroke="#000" stroke-width="3" stroke-linecap="round" stroke-linejoin="round" stroke-miterlimit="10"><path d="M221.5 12.4s8.6-1.6 8.8-10.9M239.2 12.4s-8.6-1.6-8.8-10.9M239.2 12.4s-8.6 1.6-8.8 10.9M221.5 12.4s8.6 1.6 8.8 10.9"/></g><g fill="none" stroke="#000" stroke-width="3" stroke-linecap="round" stroke-linejoin="round" stroke-miterlimit="10"><path d="M105.5 139.4s4.5-.9 4.7-5.8M114.8 139.4s-4.5-.9-4.6-5.8M114.8 139.4s-4.5.9-4.6 5.7M105.5 139.4s4.5.9 4.7 5.7"/></g><g fill="none" stroke="#000" stroke-width="3" stroke-linecap="round" stroke-linejoin="round" stroke-miterlimit="10"><path d="M25.5 19.4s4.5-.9 4.7-5.8M34.8 19.4s-4.5-.9-4.6-5.8M34.8 19.4s-4.5.9-4.6 5.7M25.5 19.4s4.5.9 4.7 5.7"/></g><g fill="none" stroke="#000" stroke-width="3" stroke-linecap="round" stroke-linejoin="round" stroke-miterlimit="10"><path d="M285.5 49.4s4.5-.9 4.7-5.8M294.8 49.4s-4.5-.9-4.6-5.8M294.8 49.4s-4.5.9-4.6 5.7M285.5 49.4s4.5.9 4.7 5.7"/></g><g fill="none" stroke="#000" stroke-width="3" stroke-linecap="round" stroke-linejoin="round" stroke-miterlimit="10"><path d="M275.5 119.4s4.5-.9 4.7-5.8M284.8 119.4s-4.5-.9-4.6-5.8M284.8 119.4s-4.5.9-4.6 5.7M275.5 119.4s4.5.9 4.7 5.7"/></g><g fill="none" stroke="#000" stroke-width="3" stroke-linecap="round" stroke-linejoin="round" stroke-miterlimit="10"><path d="M1.5 111.4s4.5-.9 4.7-5.8M10.8 111.4s-4.5-.9-4.6-5.8M10.8 111.4s-4.5.9-4.6 5.7M1.5 111.4s4.5.9 4.7 5.7"/></g><path fill="#EFC223" stroke="#000" stroke-width="3" stroke-miterlimit="10" d="M77.7 118.6l62.1-2.1 66.8 12.7c8.1 2.4 16.4-1.1 18.4-7.8l4.6-15.4 4.6-15.4c2-6.7-3-14.2-11.1-16.6l-62.8-26.1L109.7 12l-32 106.6z"/><path fill="#FFF" stroke="#000" stroke-width="3" stroke-miterlimit="10" d="M174.2 123.1l32.4 6.2c8.1 2.4 16.4-1.1 18.4-7.8l4.6-15.4 4.6-15.4c2-6.7-3-14.2-11.1-16.6l-28.5-11.8"/><path fill="#FFF" stroke="#000" stroke-width="3" stroke-linecap="round" stroke-linejoin="round" stroke-miterlimit="10" d="M121.8 20.3l-29.2 97.2"/><path fill="none" stroke="#000" stroke-width="3" stroke-linecap="round" stroke-linejoin="round" stroke-miterlimit="10" d="M209.1 130.3l-42.8 71.4-15.2-4.6 42.8-134.2M170.2 135.9l-8.6-2.6 3.1-11.5"/><path fill="#FFF" stroke="#000" stroke-width="3" stroke-linecap="round" stroke-linejoin="round" stroke-miterlimit="10" d="M211.2 83l-9.4-2.8M209.2 89.7l-9.4-2.8M207.2 96.4l-9.5-2.8M205.2 103.1l-9.5-2.8M203.2 109.8l-9.5-2.8M201.2 116.5l-9.5-2.8"/><g fill="#FFF" stroke="#000" stroke-width="3" stroke-linecap="round" stroke-linejoin="round" stroke-miterlimit="10"><path d="M95.5 29.6L90 47.9M80.9 78.5l-5.5 18.3M51.9 53.1l18.3 5.5M54.6 79.8l16.8-9M77.9 49.2l-9.1-16.9"/></g><path fill="none" stroke="#000" stroke-width="3" stroke-linecap="round" stroke-linejoin="round" stroke-miterlimit="10" d="M95.7 57.3c-4.7-1.4-9.7 1.3-11.1 6s1.3 9.7 6 11.1"/><g fill="none" stroke="#000" stroke-width="3" stroke-linecap="round" stroke-linejoin="round" stroke-miterlimit="10"><path d="M30.8 175.1s8.6-1.6 8.8-10.9M48.5 175.1s-8.6-1.6-8.8-10.9M48.5 175.1s-8.6 1.6-8.8 10.9M30.8 175.1s8.6 1.6 8.8 10.9"/></g><g fill="none" stroke="#000" stroke-width="3" stroke-linecap="round" stroke-linejoin="round" stroke-miterlimit="10"><path d="M220.8 165.1s8.6-1.6 8.8-10.9M238.5 165.1s-8.6-1.6-8.8-10.9M238.5 165.1s-8.6 1.6-8.8 10.9M220.8 165.1s8.6 1.6 8.8 10.9"/></g><g fill="none" stroke="#000" stroke-width="3" stroke-linecap="round" stroke-linejoin="round" stroke-miterlimit="10"><path d="M221.5 12.4s8.6-1.6 8.8-10.9M239.2 12.4s-8.6-1.6-8.8-10.9M239.2 12.4s-8.6 1.6-8.8 10.9M221.5 12.4s8.6 1.6 8.8 10.9"/></g><g fill="none" stroke="#000" stroke-width="3" stroke-linecap="round" stroke-linejoin="round" stroke-miterlimit="10"><path d="M105.5 139.4s4.5-.9 4.7-5.8M114.8 139.4s-4.5-.9-4.6-5.8M114.8 139.4s-4.5.9-4.6 5.7M105.5 139.4s4.5.9 4.7 5.7"/></g><g fill="none" stroke="#000" stroke-width="3" stroke-linecap="round" stroke-linejoin="round" stroke-miterlimit="10"><path d="M25.5 19.4s4.5-.9 4.7-5.8M34.8 19.4s-4.5-.9-4.6-5.8M34.8 19.4s-4.5.9-4.6 5.7M25.5 19.4s4.5.9 4.7 5.7"/></g><g fill="none" stroke="#000" stroke-width="3" stroke-linecap="round" stroke-linejoin="round" stroke-miterlimit="10"><path d="M285.5 49.4s4.5-.9 4.7-5.8M294.8 49.4s-4.5-.9-4.6-5.8M294.8 49.4s-4.5.9-4.6 5.7M285.5 49.4s4.5.9 4.7 5.7"/></g><g fill="none" stroke="#000" stroke-width="3" stroke-linecap="round" stroke-linejoin="round" stroke-miterlimit="10"><path d="M275.5 119.4s4.5-.9 4.7-5.8M284.8 119.4s-4.5-.9-4.6-5.8M284.8 119.4s-4.5.9-4.6 5.7M275.5 119.4s4.5.9 4.7 5.7"/></g><g fill="none" stroke="#000" stroke-width="3" stroke-linecap="round" stroke-linejoin="round" stroke-miterlimit="10"><path d="M1.5 111.4s4.5-.9 4.7-5.8M10.8 111.4s-4.5-.9-4.6-5.8M10.8 111.4s-4.5.9-4.6 5.7M1.5 111.4s4.5.9 4.7 5.7"/></g></svg>