<?xml version="1.0" encoding="utf-8"?>
<!-- Generator: Adobe Illustrator 18.0.0, SVG Export Plug-In . SVG Version: 6.00 Build 0)  -->
<!DOCTYPE svg PUBLIC "-//W3C//DTD SVG 1.1//EN" "http://www.w3.org/Graphics/SVG/1.1/DTD/svg11.dtd">
<svg version="1.1" id="Layer_1" xmlns="http://www.w3.org/2000/svg" xmlns:xlink="http://www.w3.org/1999/xlink" x="0px" y="0px"
	 viewBox="0 0 313.6 229.6" enable-background="new 0 0 313.6 229.6" xml:space="preserve">
<g>
	<path fill="none" stroke="#000000" stroke-width="3" stroke-linecap="round" stroke-linejoin="round" stroke-miterlimit="10" d="
		M23.3,6.8c0,0,4.5-0.9,4.7-5.8 M32.6,6.8c0,0-4.5-0.9-4.6-5.8 M32.6,6.8c0,0-4.5,0.9-4.6,5.7 M23.3,6.8c0,0,4.5,0.9,4.7,5.7"/>
</g>
<g>
	<path fill="none" stroke="#000000" stroke-width="3" stroke-linecap="round" stroke-linejoin="round" stroke-miterlimit="10" d="
		M303.3,48.1c0,0,4.5-0.9,4.7-5.8 M312.6,48.1c0,0-4.5-0.9-4.6-5.8 M312.6,48.1c0,0-4.5,0.9-4.6,5.7 M303.3,48.1
		c0,0,4.5,0.9,4.7,5.7"/>
</g>
<g>
	<path fill="none" stroke="#000000" stroke-width="3" stroke-linecap="round" stroke-linejoin="round" stroke-miterlimit="10" d="
		M273.3,134.1c0,0,4.5-0.9,4.7-5.8 M282.6,134.1c0,0-4.5-0.9-4.6-5.8 M282.6,134.1c0,0-4.5,0.9-4.6,5.7 M273.3,134.1
		c0,0,4.5,0.9,4.7,5.7"/>
</g>
<g>
	<path fill="none" stroke="#000000" stroke-width="3" stroke-linecap="round" stroke-linejoin="round" stroke-miterlimit="10" d="
		M31.3,145.8c0,0,4.5-0.9,4.7-5.8 M40.6,145.8c0,0-4.5-0.9-4.6-5.8 M40.6,145.8c0,0-4.5,0.9-4.6,5.7 M31.3,145.8
		c0,0,4.5,0.9,4.7,5.7"/>
</g>
<g>
	<path fill="none" stroke="#000000" stroke-width="3" stroke-linecap="round" stroke-linejoin="round" stroke-miterlimit="10" d="
		M121.3,16.8c0,0,4.5-0.9,4.7-5.8 M130.6,16.8c0,0-4.5-0.9-4.6-5.8 M130.6,16.8c0,0-4.5,0.9-4.6,5.7 M121.3,16.8
		c0,0,4.5,0.9,4.7,5.7"/>
</g>
<path fill="none" stroke="#000000" stroke-width="3" stroke-miterlimit="10" d="M85.1,187.5V54.3c0-3.4,2.8-6.2,6.2-6.2
	c3.4,0,6.2,2.8,6.2,6.2V188"/>
<path fill="#EFC223" stroke="#000000" stroke-width="3" stroke-miterlimit="10" d="M241.2,101.1H97.6V60.5h143.6l-25,20.3
	L241.2,101.1z"/>
<path d="M113.3,75.2h-5.2v-1.9h12.6v1.9h-5.2v15.1h-2.2V75.2z M124.8,73.3v7.1h8.2v-7.1h2.2v17H133v-8h-8.2v8h-2.2v-17H124.8z
	 M147.8,82.3h-6.6v6.2h7.4v1.8H139v-17h9.2v1.8h-7v5.4h6.6L147.8,82.3L147.8,82.3z M159,73.3v7.1h8.2v-7.1h2.2v17h-2.2v-8H159v8
	h-2.2v-17H159z M175.5,73.3v10.1c0,3.8,1.7,5.4,4,5.4c2.5,0,4.1-1.7,4.1-5.4V73.3h2.2v9.9c0,5.2-2.8,7.4-6.4,7.4
	c-3.5,0-6.1-2-6.1-7.3v-10H175.5z M189.6,73.5c1-0.2,2.5-0.4,4-0.4c2.2,0,3.6,0.4,4.7,1.2c0.9,0.7,1.4,1.7,1.4,3
	c0,1.6-1.1,3.1-2.9,3.7c1.6,0.4,3.5,1.7,3.5,4.3c0,1.5-0.6,2.6-1.4,3.4c-1.2,1.1-3.1,1.6-5.9,1.6c-1.5,0-2.7-0.1-3.4-0.2L189.6,73.5
	L189.6,73.5z M191.8,80.5h2c2.3,0,3.7-1.2,3.7-2.9c0-2-1.5-2.8-3.7-2.8c-1,0-1.6,0.1-1.9,0.2v5.5H191.8z M191.8,88.6
	c0.4,0.1,1.1,0.1,1.8,0.1c2.3,0,4.4-0.8,4.4-3.3c0-2.3-2-3.3-4.4-3.3h-1.8C191.8,82.1,191.8,88.6,191.8,88.6z"/>
<path fill="none" stroke="#000000" stroke-width="3" stroke-miterlimit="10" d="M31.9,211.4c15-13.9,37.6-22.8,62.9-22.8
	c24.8,0,47,8.5,62,22"/>
<path fill="none" stroke="#000000" stroke-width="3" stroke-miterlimit="10" d="M128.2,228.1c12.7-13.9,31.8-22.8,53.3-22.8
	c21,0,39.8,8.5,52.5,22"/>
<path fill="none" stroke="#000000" stroke-width="3" stroke-miterlimit="10" d="M175,206.2c11.6-13.9,29.2-22.8,48.8-22.8
	c19.2,0,36.5,8.5,48.1,22 M85.9,172.2l12.1-8.6 M85.9,148.4l12.1-8.6 M85.9,124.5L98,116 M85.9,156.3l12.1-8.6 M85.9,132.5l12.1-8.6
	 M85.9,108.7l12.1-8.6 M85.9,92.8L98,84.2 M85.9,84.8L98,76.2 M85.9,100.7L98,92.1 M85.9,116.6L98,108 M85.9,180.2l12.1-8.6
	 M85.9,164.3l12.1-8.6 M85.9,140.4l12.1-8.6 M85.9,76.9L98,68.3 M85.9,68.9L98,60.3 M85.9,61L98,52.4"/>
<g>
	<path fill="none" stroke="#000000" stroke-width="3" stroke-linecap="round" stroke-linejoin="round" stroke-miterlimit="10" d="
		M235,1.1v7 M235,20.1v7 M248,14.1h-7 M229,14.1h-7 M244,23.4l-5.1-5 M230.5,9.9l-5.1-5 M225.4,23.4l5.1-5 M238.9,9.9l5.1-5"/>
</g>
<g>
	<path fill="none" stroke="#000000" stroke-width="3" stroke-linecap="round" stroke-linejoin="round" stroke-miterlimit="10" d="
		M15,71.1v7 M15,90.1v7 M28,84.1h-7 M9,84.1H2 M24,93.4l-5.1-5 M10.5,79.9l-5.1-5 M5.4,93.4l5.1-5 M18.9,79.9l5.1-5"/>
</g>
<g>
	<path fill="none" stroke="#000000" stroke-width="3" stroke-linecap="round" stroke-linejoin="round" stroke-miterlimit="10" d="
		M176.5,133.5v7 M176.5,152.5v7 M189.5,146.5h-7 M170.5,146.5h-7 M185.4,155.8l-5-5.1 M172,142.3l-5.1-5 M166.9,155.8l5.1-5
		 M180.4,142.3l5-5"/>
</g>
<g>
	<path fill="none" stroke="#000000" stroke-width="3" stroke-linecap="round" stroke-linejoin="round" stroke-miterlimit="10" d="
		M23.3,6.8c0,0,4.5-0.9,4.7-5.8 M32.6,6.8c0,0-4.5-0.9-4.6-5.8 M32.6,6.8c0,0-4.5,0.9-4.6,5.7 M23.3,6.8c0,0,4.5,0.9,4.7,5.7"/>
</g>
<g>
	<path fill="none" stroke="#000000" stroke-width="3" stroke-linecap="round" stroke-linejoin="round" stroke-miterlimit="10" d="
		M303.3,48.1c0,0,4.5-0.9,4.7-5.8 M312.6,48.1c0,0-4.5-0.9-4.6-5.8 M312.6,48.1c0,0-4.5,0.9-4.6,5.7 M303.3,48.1
		c0,0,4.5,0.9,4.7,5.7"/>
</g>
<g>
	<path fill="none" stroke="#000000" stroke-width="3" stroke-linecap="round" stroke-linejoin="round" stroke-miterlimit="10" d="
		M273.3,134.1c0,0,4.5-0.9,4.7-5.8 M282.6,134.1c0,0-4.5-0.9-4.6-5.8 M282.6,134.1c0,0-4.5,0.9-4.6,5.7 M273.3,134.1
		c0,0,4.5,0.9,4.7,5.7"/>
</g>
<g>
	<path fill="none" stroke="#000000" stroke-width="3" stroke-linecap="round" stroke-linejoin="round" stroke-miterlimit="10" d="
		M31.3,145.8c0,0,4.5-0.9,4.7-5.8 M40.6,145.8c0,0-4.5-0.9-4.6-5.8 M40.6,145.8c0,0-4.5,0.9-4.6,5.7 M31.3,145.8
		c0,0,4.5,0.9,4.7,5.7"/>
</g>
<g>
	<path fill="none" stroke="#000000" stroke-width="3" stroke-linecap="round" stroke-linejoin="round" stroke-miterlimit="10" d="
		M121.3,16.8c0,0,4.5-0.9,4.7-5.8 M130.6,16.8c0,0-4.5-0.9-4.6-5.8 M130.6,16.8c0,0-4.5,0.9-4.6,5.7 M121.3,16.8
		c0,0,4.5,0.9,4.7,5.7"/>
</g>
<path fill="none" stroke="#000000" stroke-width="3" stroke-miterlimit="10" d="M85.1,187.5V54.3c0-3.4,2.8-6.2,6.2-6.2
	c3.4,0,6.2,2.8,6.2,6.2V188"/>
<path fill="#EFC223" stroke="#000000" stroke-width="3" stroke-miterlimit="10" d="M241.2,101.1H97.6V60.5h143.6l-25,20.3
	L241.2,101.1z"/>
<path d="M119.7,74v0.8c0,0.4-0.2,0.6-0.6,0.6H115v12.4c0,0.4-0.2,0.6-0.6,0.6h-1c-0.4,0-0.6-0.2-0.6-0.6V75.3h-4.1
	c-0.4,0-0.6-0.2-0.6-0.6v-0.6c0-0.4,0.2-0.6,0.6-0.6c1-0.1,2.2-0.1,3.3-0.1h7C119.5,73.4,119.7,73.6,119.7,74z M135.4,87.2v0.6
	c0,0.4-0.2,0.6-0.6,0.6h-0.9c-1.3,0-2.2-0.3-2.2-1.9v-4.6h-7.9v5.7c0,0.4-0.2,0.6-0.6,0.6h-1c-0.4,0-0.6-0.2-0.6-0.6V74
	c0-0.4,0.2-0.6,0.6-0.6h1c0.4,0,0.6,0.2,0.6,0.6v6.1h7.9V74c0-0.4,0.2-0.6,0.6-0.6h1c0.4,0,0.6,0.2,0.6,0.6v12.5
	c0.2,0,0.5,0.1,0.8,0.1C135.2,86.7,135.4,86.8,135.4,87.2L135.4,87.2z M147.6,87v0.7c0,0.4-0.2,0.6-0.6,0.6h-8.4
	c-0.4,0-0.6-0.2-0.6-0.6V74c0-0.4,0.2-0.6,0.6-0.6h8.4c0.4,0,0.6,0.2,0.5,0.6v0.7c0,0.4-0.3,0.6-0.6,0.6h-6.8V80h6.2
	c0.4,0,0.6,0.2,0.6,0.6v0.7c0,0.4-0.2,0.6-0.6,0.6h-6.2v4.6h6.9C147.4,86.4,147.6,86.6,147.6,87L147.6,87z M170.1,87.2v0.6
	c0,0.4-0.2,0.6-0.6,0.6h-0.9c-1.3,0-2.2-0.3-2.2-1.9v-4.6h-7.9v5.7c0,0.4-0.2,0.6-0.6,0.6h-1c-0.4,0-0.6-0.2-0.6-0.6V74
	c0-0.4,0.2-0.6,0.6-0.6h1c0.4,0,0.6,0.2,0.6,0.6v6.1h7.9V74c0-0.4,0.2-0.6,0.6-0.6h1c0.4,0,0.6,0.2,0.6,0.6v12.5
	c0.2,0,0.5,0.1,0.8,0.1C169.9,86.7,170.1,86.8,170.1,87.2z M173.1,82.5v-7.3h-1.2c-0.4,0-0.6-0.2-0.6-0.6v-0.5
	c0-0.4,0.2-0.6,0.5-0.6c0.4-0.1,1-0.1,1.6-0.1c1.2,0,1.7,0.5,1.7,1.7v7.4c0,2.9,1.2,4.2,3.8,4.2s3.9-1.3,3.9-4.2V74
	c0-0.4,0.2-0.6,0.6-0.6h1c0.4,0,0.6,0.2,0.6,0.6v8.5c0,3.9-2.1,6-6,6C175,88.6,173.1,86.5,173.1,82.5L173.1,82.5z M200.4,84
	c0,2.8-1.9,4.3-5.3,4.3h-5.4c-0.4,0-0.6-0.2-0.6-0.6V75.3h-1.2c-0.4,0-0.6-0.2-0.6-0.6v-0.6c0-0.3,0.1-0.6,0.5-0.6
	c0.4-0.1,0.8-0.1,1.4-0.1c0.7,0,1.2,0.2,1.5,0.5c0.7-0.3,1.8-0.6,3.4-0.6c3.5,0,5.2,1.6,5.2,4c0,1.5-0.7,2.5-1.7,3.1
	C199.3,80.9,200.4,82.1,200.4,84L200.4,84z M194.2,75.1c-1,0-2,0.1-2.8,0.2v4.5h3c1.9,0,3-0.5,3-2.2
	C197.5,76.1,196.6,75.1,194.2,75.1z M198.3,83.9c0-1.5-1.1-2.4-3-2.4h-3.9v4.9h3.8C197.4,86.4,198.3,85.5,198.3,83.9L198.3,83.9z"/>
<path fill="none" stroke="#000000" stroke-width="3" stroke-miterlimit="10" d="M31.9,211.4c15-13.9,37.6-22.8,62.9-22.8
	c24.8,0,47,8.5,62,22"/>
<path fill="none" stroke="#000000" stroke-width="3" stroke-miterlimit="10" d="M128.2,228.1c12.7-13.9,31.8-22.8,53.3-22.8
	c21,0,39.8,8.5,52.5,22"/>
<path fill="none" stroke="#000000" stroke-width="3" stroke-miterlimit="10" d="M175,206.2c11.6-13.9,29.2-22.8,48.8-22.8
	c19.2,0,36.5,8.5,48.1,22 M85.9,172.2l12.1-8.6 M85.9,148.4l12.1-8.6 M85.9,124.5L98,116 M85.9,156.3l12.1-8.6 M85.9,132.5l12.1-8.6
	 M85.9,108.7l12.1-8.6 M85.9,92.8L98,84.2 M85.9,84.8L98,76.2 M85.9,100.7L98,92.1 M85.9,116.6L98,108 M85.9,180.2l12.1-8.6
	 M85.9,164.3l12.1-8.6 M85.9,140.4l12.1-8.6 M85.9,76.9L98,68.3 M85.9,68.9L98,60.3 M85.9,61L98,52.4"/>
<g>
	<path fill="none" stroke="#000000" stroke-width="3" stroke-linecap="round" stroke-linejoin="round" stroke-miterlimit="10" d="
		M235,1.1v7 M235,20.1v7 M248,14.1h-7 M229,14.1h-7 M244,23.4l-5.1-5 M230.5,9.9l-5.1-5 M225.4,23.4l5.1-5 M238.9,9.9l5.1-5"/>
</g>
<g>
	<path fill="none" stroke="#000000" stroke-width="3" stroke-linecap="round" stroke-linejoin="round" stroke-miterlimit="10" d="
		M15,71.1v7 M15,90.1v7 M28,84.1h-7 M9,84.1H2 M24,93.4l-5.1-5 M10.5,79.9l-5.1-5 M5.4,93.4l5.1-5 M18.9,79.9l5.1-5"/>
</g>
<g>
	<path fill="none" stroke="#000000" stroke-width="3" stroke-linecap="round" stroke-linejoin="round" stroke-miterlimit="10" d="
		M176.5,133.5v7 M176.5,152.5v7 M189.5,146.5h-7 M170.5,146.5h-7 M185.4,155.8l-5-5.1 M172,142.3l-5.1-5 M166.9,155.8l5.1-5
		 M180.4,142.3l5-5"/>
</g>
</svg>
