<svg xmlns="http://www.w3.org/2000/svg" width="460.3" height="334.9" viewbox="-40 0 294.9 460.3"><g fill="none" stroke="#050505" stroke-width="3.171" stroke-linecap="round" stroke-linejoin="round" stroke-miterlimit="10"><path d="M1.6 126.2S8 125 8.2 118M14.8 126.2S8.4 125 8.2 118M14.8 126.2s-6.4 1.2-6.6 8.2M1.6 126.2s6.4 1.2 6.6 8.2"/></g><g fill="none" stroke="#000" stroke-width="3.186" stroke-linecap="round" stroke-linejoin="round" stroke-miterlimit="10"><path d="M441.2 5.4v9.5M441.2 30.9v9.5M458.7 22.9h-9.5M433.2 22.9h-9.5M453.6 35.3l-6.8-6.8M435.6 17.3l-6.8-6.8M428.8 35.3l6.8-6.8M446.8 17.3l6.8-6.8"/></g><path fill="#FFF" stroke="#000" stroke-width="4.067" stroke-miterlimit="10" d="M340 79.1H131.4V20.2H340l-36.3 29.5z"/><path fill="none" stroke="#000" stroke-width="4.067" stroke-miterlimit="10" d="M113.3 204.6V11.1c0-5 4.1-9.1 9.1-9.1s9.1 4.1 9.1 9.1v194.3"/><path d="M167.9 38.4V43c0 .4-.3.7-.7.7h-5.9c-.2 0-.3.1-.3.3v18.7c0 .4-.3.7-.7.7h-5.5c-.4 0-.7-.3-.7-.7V44c0-.2-.1-.3-.3-.3h-5.7c-.4 0-.7-.3-.7-.7v-4.5c0-.4.3-.7.7-.7h19.1c.4-.1.7.2.7.6zM183.6 37.7h5.5c.4 0 .7.3.7.7v24.3c0 .4-.3.7-.7.7h-5.5c-.4 0-.7-.3-.7-.7v-9.1c0-.2-.1-.3-.3-.3h-5.5c-.2 0-.3.1-.3.3v9.1c0 .4-.3.7-.7.7h-5.5c-.4 0-.7-.3-.7-.7V38.4c0-.4.3-.7.7-.7h5.5c.4 0 .7.3.7.7v8.7c0 .2.1.3.3.3h5.5c.2 0 .3-.1.3-.3v-8.7c0-.4.3-.7.7-.7zM210.3 43.6h-10.7c-.2 0-.3.1-.3.3v3.2c0 .2.1.3.3.3h6.5c.4 0 .7.3.7.7v4.5c0 .4-.3.7-.7.7h-6.5c-.2 0-.3.1-.3.3v3.6c0 .2.1.3.3.3h10.7c.4 0 .7.3.7.7v4.5c0 .4-.3.7-.7.7h-17.2c-.4 0-.7-.3-.7-.7V38.4c0-.4.3-.7.7-.7h17.2c.4 0 .7.3.7.7v4.5c-.1.5-.3.7-.7.7zM234.3 37.7h5.5c.4 0 .7.3.7.7v24.3c0 .4-.3.7-.7.7h-5.5c-.4 0-.7-.3-.7-.7v-9.1c0-.2-.1-.3-.3-.3h-5.5c-.2 0-.3.1-.3.3v9.1c0 .4-.3.7-.7.7h-5.5c-.4 0-.7-.3-.7-.7V38.4c0-.4.3-.7.7-.7h5.5c.4 0 .7.3.7.7v8.7c0 .2.1.3.3.3h5.5c.2 0 .3-.1.3-.3v-8.7c0-.4.2-.7.7-.7zM242.8 54.5V38.4c0-.4.3-.7.7-.7h5.5c.4 0 .7.3.7.7v16.1c0 2 1.2 3.3 3.2 3.3 1.9 0 3.1-1.3 3.1-3.3V38.4c0-.4.3-.7.7-.7h5.5c.4 0 .7.3.7.7v16.1c0 5.5-4 9.2-10 9.2s-10.1-3.7-10.1-9.2zM282.5 50.4c2.1 1.2 3 3.1 3 5.7 0 5.3-4.3 7.3-9.5 7.3h-9.7c-.4 0-.7-.3-.7-.7V38.4c0-.4.3-.7.7-.7h9.4c6 0 9.4 1.8 9.4 7.3 0 2.4-.9 4-2.6 5-.2.1-.2.2 0 .4zm-10-6.5v3.4c0 .2.1.3.3.3h2.9c1.8 0 2.7-.7 2.7-2s-.9-2-2.7-2h-2.9c-.2 0-.3.2-.3.3zm6.1 11.4c0-1.4-.9-2.1-2.6-2.1h-3.3c-.2 0-.3.1-.3.3v3.6c0 .2.1.3.3.3h3.2c1.8.1 2.7-.6 2.7-2.1z"/><path fill="none" stroke="#000" stroke-width="4.067" stroke-miterlimit="10" d="M36 239.3c21.7-20.2 54.6-33.1 91.4-33.1 36 0 68.3 12.4 90.1 31.9"/><path fill="none" stroke="#000" stroke-width="4.067" stroke-miterlimit="10" d="M175.8 263.5c18.4-20.2 46.2-33.1 77.4-33.1 30.5 0 57.8 12.4 76.2 31.9"/><path fill="none" stroke="#000" stroke-width="4.067" stroke-miterlimit="10" d="M243.9 231.8c16.9-20.2 42.4-33.1 70.9-33.1 28 0 53 12.4 69.8 31.9M114.4 182.4l17.6-12.5M114.4 147.7l17.6-12.4M114.4 113.1l17.6-12.4M114.4 159.3l17.6-12.5M114.4 124.7l17.6-12.5M114.4 90L132 77.6M114.4 67L132 54.5M114.4 55.4L132 43M114.4 78.5L132 66M114.4 101.6L132 89.1M114.4 193.9l17.6-12.5M114.4 170.8l17.6-12.4M114.4 136.2l17.6-12.5M114.4 43.9L132 31.4M114.4 32.4L132 19.9M114.4 20.8L132 8.3"/></svg>