<svg xmlns="http://www.w3.org/2000/svg" width="313.6" height="229.6" viewBox="0 0 313.6 229.6"><g fill="none" stroke="#000" stroke-width="3" stroke-linecap="round" stroke-linejoin="round" stroke-miterlimit="10"><path d="M22.8 7.3s4.5-.9 4.7-5.8M32.1 7.3s-4.5-.9-4.6-5.8M32.1 7.3s-4.5.9-4.6 5.7M22.8 7.3s4.5.9 4.7 5.7"/></g><g fill="none" stroke="#000" stroke-width="3" stroke-linecap="round" stroke-linejoin="round" stroke-miterlimit="10"><path d="M302.8 48.6s4.5-.9 4.7-5.8M312.1 48.6s-4.5-.9-4.6-5.8M312.1 48.6s-4.5.9-4.6 5.7M302.8 48.6s4.5.9 4.7 5.7"/></g><g fill="none" stroke="#000" stroke-width="3" stroke-linecap="round" stroke-linejoin="round" stroke-miterlimit="10"><path d="M272.8 134.6s4.5-.9 4.7-5.8M282.1 134.6s-4.5-.9-4.6-5.8M282.1 134.6s-4.5.9-4.6 5.7M272.8 134.6s4.5.9 4.7 5.7"/></g><g fill="none" stroke="#000" stroke-width="3" stroke-linecap="round" stroke-linejoin="round" stroke-miterlimit="10"><path d="M30.8 146.3s4.5-.9 4.7-5.8M40.1 146.3s-4.5-.9-4.6-5.8M40.1 146.3s-4.5.9-4.6 5.7M30.8 146.3s4.5.9 4.7 5.7"/></g><g fill="none" stroke="#000" stroke-width="3" stroke-linecap="round" stroke-linejoin="round" stroke-miterlimit="10"><path d="M120.8 17.3s4.5-.9 4.7-5.8M130.1 17.3s-4.5-.9-4.6-5.8M130.1 17.3s-4.5.9-4.6 5.7M120.8 17.3s4.5.9 4.7 5.7"/></g><path fill="none" stroke="#000" stroke-width="3" stroke-miterlimit="10" d="M84.6 188V54.8c0-3.4 2.8-6.2 6.2-6.2 3.4 0 6.2 2.8 6.2 6.2v133.7"/><path fill="#EFC223" stroke="#000" stroke-width="3" stroke-miterlimit="10" d="M240.7 101.6H97.1V61h143.6l-25 20.3z"/><path d="M112.8 75.7h-5.2v-1.9h12.6v1.9H115v15.1h-2.2V75.7zM124.3 73.8v7.1h8.2v-7.1h2.2v17h-2.2v-8h-8.2v8h-2.2v-17h2.2zM147.3 82.8h-6.6V89h7.4v1.8h-9.6v-17h9.2v1.8h-7V81h6.6v1.8zM158.5 73.8v7.1h8.2v-7.1h2.2v17h-2.2v-8h-8.2v8h-2.2v-17h2.2zM175 73.8v10.1c0 3.8 1.7 5.4 4 5.4 2.5 0 4.1-1.7 4.1-5.4V73.8h2.2v9.9c0 5.2-2.8 7.4-6.4 7.4-3.5 0-6.1-2-6.1-7.3v-10h2.2zM189.1 74c1-.2 2.5-.4 4-.4 2.2 0 3.6.4 4.7 1.2.9.7 1.4 1.7 1.4 3 0 1.6-1.1 3.1-2.9 3.7 1.6.4 3.5 1.7 3.5 4.3 0 1.5-.6 2.6-1.4 3.4-1.2 1.1-3.1 1.6-5.9 1.6-1.5 0-2.7-.1-3.4-.2V74zm2.2 7h2c2.3 0 3.7-1.2 3.7-2.9 0-2-1.5-2.8-3.7-2.8-1 0-1.6.1-1.9.2V81zm0 8.1c.4.1 1.1.1 1.8.1 2.3 0 4.4-.8 4.4-3.3 0-2.3-2-3.3-4.4-3.3h-1.8v6.5z"/><path fill="none" stroke="#000" stroke-width="3" stroke-miterlimit="10" d="M31.4 211.9c15-13.9 37.6-22.8 62.9-22.8 24.8 0 47 8.5 62 22"/><path fill="none" stroke="#000" stroke-width="3" stroke-miterlimit="10" d="M127.7 228.6c12.7-13.9 31.8-22.8 53.3-22.8 21 0 39.8 8.5 52.5 22"/><path fill="none" stroke="#000" stroke-width="3" stroke-miterlimit="10" d="M174.5 206.7c11.6-13.9 29.2-22.8 48.8-22.8 19.2 0 36.5 8.5 48.1 22M85.4 172.7l12.1-8.6M85.4 148.9l12.1-8.6M85.4 125l12.1-8.5M85.4 156.8l12.1-8.6M85.4 133l12.1-8.6M85.4 109.2l12.1-8.6M85.4 93.3l12.1-8.6M85.4 85.3l12.1-8.6M85.4 101.2l12.1-8.6M85.4 117.1l12.1-8.6M85.4 180.7l12.1-8.6M85.4 164.8l12.1-8.6M85.4 140.9l12.1-8.6M85.4 77.4l12.1-8.6M85.4 69.4l12.1-8.6M85.4 61.5l12.1-8.6"/><g fill="none" stroke="#000" stroke-width="3" stroke-linecap="round" stroke-linejoin="round" stroke-miterlimit="10"><path d="M234.5 1.6v7M234.5 20.6v7M247.5 14.6h-7M228.5 14.6h-7M243.5 23.9l-5.1-5M230 10.4l-5.1-5M224.9 23.9l5.1-5M238.4 10.4l5.1-5"/></g><g fill="none" stroke="#000" stroke-width="3" stroke-linecap="round" stroke-linejoin="round" stroke-miterlimit="10"><path d="M14.5 71.6v7M14.5 90.6v7M27.5 84.6h-7M8.5 84.6h-7M23.5 93.9l-5.1-5M10 80.4l-5.1-5M4.9 93.9l5.1-5M18.4 80.4l5.1-5"/></g><g fill="none" stroke="#000" stroke-width="3" stroke-linecap="round" stroke-linejoin="round" stroke-miterlimit="10"><path d="M176 134v7M176 153v7M189 147h-7M170 147h-7M184.9 156.3l-5-5.1M171.5 142.8l-5.1-5M166.4 156.3l5.1-5M179.9 142.8l5-5"/></g><g fill="none" stroke="#000" stroke-width="3" stroke-linecap="round" stroke-linejoin="round" stroke-miterlimit="10"><path d="M22.8 7.3s4.5-.9 4.7-5.8M32.1 7.3s-4.5-.9-4.6-5.8M32.1 7.3s-4.5.9-4.6 5.7M22.8 7.3s4.5.9 4.7 5.7"/></g><g fill="none" stroke="#000" stroke-width="3" stroke-linecap="round" stroke-linejoin="round" stroke-miterlimit="10"><path d="M302.8 48.6s4.5-.9 4.7-5.8M312.1 48.6s-4.5-.9-4.6-5.8M312.1 48.6s-4.5.9-4.6 5.7M302.8 48.6s4.5.9 4.7 5.7"/></g><g fill="none" stroke="#000" stroke-width="3" stroke-linecap="round" stroke-linejoin="round" stroke-miterlimit="10"><path d="M272.8 134.6s4.5-.9 4.7-5.8M282.1 134.6s-4.5-.9-4.6-5.8M282.1 134.6s-4.5.9-4.6 5.7M272.8 134.6s4.5.9 4.7 5.7"/></g><g fill="none" stroke="#000" stroke-width="3" stroke-linecap="round" stroke-linejoin="round" stroke-miterlimit="10"><path d="M30.8 146.3s4.5-.9 4.7-5.8M40.1 146.3s-4.5-.9-4.6-5.8M40.1 146.3s-4.5.9-4.6 5.7M30.8 146.3s4.5.9 4.7 5.7"/></g><g fill="none" stroke="#000" stroke-width="3" stroke-linecap="round" stroke-linejoin="round" stroke-miterlimit="10"><path d="M120.8 17.3s4.5-.9 4.7-5.8M130.1 17.3s-4.5-.9-4.6-5.8M130.1 17.3s-4.5.9-4.6 5.7M120.8 17.3s4.5.9 4.7 5.7"/></g><path fill="none" stroke="#000" stroke-width="3" stroke-miterlimit="10" d="M84.6 188V54.8c0-3.4 2.8-6.2 6.2-6.2 3.4 0 6.2 2.8 6.2 6.2v133.7"/><path fill="#EFC223" stroke="#000" stroke-width="3" stroke-miterlimit="10" d="M240.7 101.6H97.1V61h143.6l-25 20.3z"/><path d="M119.2 74.5v.8c0 .4-.2.6-.6.6h-4.1v12.4c0 .4-.2.6-.6.6h-1c-.4 0-.6-.2-.6-.6V75.8h-4.1c-.4 0-.6-.2-.6-.6v-.6c0-.4.2-.6.6-.6 1-.1 2.2-.1 3.3-.1h7c.5 0 .7.2.7.6zM134.9 87.7v.6c0 .4-.2.6-.6.6h-.9c-1.3 0-2.2-.3-2.2-1.9v-4.6h-7.9v5.7c0 .4-.2.6-.6.6h-1c-.4 0-.6-.2-.6-.6V74.5c0-.4.2-.6.6-.6h1c.4 0 .6.2.6.6v6.1h7.9v-6.1c0-.4.2-.6.6-.6h1c.4 0 .6.2.6.6V87c.2 0 .5.1.8.1.5.1.7.2.7.6zM147.1 87.5v.7c0 .4-.2.6-.6.6h-8.4c-.4 0-.6-.2-.6-.6V74.5c0-.4.2-.6.6-.6h8.4c.4 0 .6.2.5.6v.7c0 .4-.3.6-.6.6h-6.8v4.7h6.2c.4 0 .6.2.6.6v.7c0 .4-.2.6-.6.6h-6.2V87h6.9c.4-.1.6.1.6.5zM169.6 87.7v.6c0 .4-.2.6-.6.6h-.9c-1.3 0-2.2-.3-2.2-1.9v-4.6H158v5.7c0 .4-.2.6-.6.6h-1c-.4 0-.6-.2-.6-.6V74.5c0-.4.2-.6.6-.6h1c.4 0 .6.2.6.6v6.1h7.9v-6.1c0-.4.2-.6.6-.6h1c.4 0 .6.2.6.6V87c.2 0 .5.1.8.1.5.1.7.2.7.6zM172.6 83v-7.3h-1.2c-.4 0-.6-.2-.6-.6v-.5c0-.4.2-.6.5-.6.4-.1 1-.1 1.6-.1 1.2 0 1.7.5 1.7 1.7V83c0 2.9 1.2 4.2 3.8 4.2 2.6 0 3.9-1.3 3.9-4.2v-8.5c0-.4.2-.6.6-.6h1c.4 0 .6.2.6.6V83c0 3.9-2.1 6-6 6-4 .1-5.9-2-5.9-6zM199.9 84.5c0 2.8-1.9 4.3-5.3 4.3H189.2c-.4 0-.6-.2-.6-.6V75.8h-1.2c-.4 0-.6-.2-.6-.6v-.6c0-.3.1-.6.5-.6.4-.1.8-.1 1.4-.1.7 0 1.2.2 1.5.5.7-.3 1.8-.6 3.4-.6 3.5 0 5.2 1.6 5.2 4 0 1.5-.7 2.5-1.7 3.1 1.7.5 2.8 1.7 2.8 3.6zm-6.2-8.9c-1 0-2 .1-2.8.2v4.5h3c1.9 0 3-.5 3-2.2.1-1.5-.8-2.5-3.2-2.5zm4.1 8.8c0-1.5-1.1-2.4-3-2.4h-3.9v4.9h3.8c2.2 0 3.1-.9 3.1-2.5z"/><path fill="none" stroke="#000" stroke-width="3" stroke-miterlimit="10" d="M31.4 211.9c15-13.9 37.6-22.8 62.9-22.8 24.8 0 47 8.5 62 22"/><path fill="none" stroke="#000" stroke-width="3" stroke-miterlimit="10" d="M127.7 228.6c12.7-13.9 31.8-22.8 53.3-22.8 21 0 39.8 8.5 52.5 22"/><path fill="none" stroke="#000" stroke-width="3" stroke-miterlimit="10" d="M174.5 206.7c11.6-13.9 29.2-22.8 48.8-22.8 19.2 0 36.5 8.5 48.1 22M85.4 172.7l12.1-8.6M85.4 148.9l12.1-8.6M85.4 125l12.1-8.5M85.4 156.8l12.1-8.6M85.4 133l12.1-8.6M85.4 109.2l12.1-8.6M85.4 93.3l12.1-8.6M85.4 85.3l12.1-8.6M85.4 101.2l12.1-8.6M85.4 117.1l12.1-8.6M85.4 180.7l12.1-8.6M85.4 164.8l12.1-8.6M85.4 140.9l12.1-8.6M85.4 77.4l12.1-8.6M85.4 69.4l12.1-8.6M85.4 61.5l12.1-8.6"/><g fill="none" stroke="#000" stroke-width="3" stroke-linecap="round" stroke-linejoin="round" stroke-miterlimit="10"><path d="M234.5 1.6v7M234.5 20.6v7M247.5 14.6h-7M228.5 14.6h-7M243.5 23.9l-5.1-5M230 10.4l-5.1-5M224.9 23.9l5.1-5M238.4 10.4l5.1-5"/></g><g fill="none" stroke="#000" stroke-width="3" stroke-linecap="round" stroke-linejoin="round" stroke-miterlimit="10"><path d="M14.5 71.6v7M14.5 90.6v7M27.5 84.6h-7M8.5 84.6h-7M23.5 93.9l-5.1-5M10 80.4l-5.1-5M4.9 93.9l5.1-5M18.4 80.4l5.1-5"/></g><g fill="none" stroke="#000" stroke-width="3" stroke-linecap="round" stroke-linejoin="round" stroke-miterlimit="10"><path d="M176 134v7M176 153v7M189 147h-7M170 147h-7M184.9 156.3l-5-5.1M171.5 142.8l-5.1-5M166.4 156.3l5.1-5M179.9 142.8l5-5"/></g></svg>