<svg xmlns="http://www.w3.org/2000/svg" width="2897.4" height="938.5" viewBox="0 0 2897.4 938.5"><path fill="none" stroke="#000" stroke-width="4" stroke-linejoin="round" stroke-miterlimit="10" d="M1312.3 770.4c29 7 58.8 14.9 89.6 24M1053.1 730.6c30.5 1.8 62.4 4.8 95.9 9.2"/><path fill="none" stroke="#000" stroke-width="4" stroke-linecap="round" stroke-linejoin="round" stroke-miterlimit="10" d="M637.9 804.2c129-76 171-82 250-82"/><g fill="#FFF" stroke="#000" stroke-width="4" stroke-miterlimit="10"><path d="M1447.9 598.2l-13-225.7H1415l-12.9 225.7M1387.1 598.6h75.7v9.2h-75.7zM1391.8 609v92.4h66.4V609"/></g><path fill="#FFF" stroke="#000" stroke-width="4" stroke-miterlimit="10" d="M1474.4 568.1h330.7v133.3h-330.7z"/><path fill="none" stroke="#000" stroke-width="4" stroke-miterlimit="10" d="M1474.4 598.2h331.8M1474.4 606.2h331.8M1456.9 669.1c5.7-.2 11.5-.4 17.3-.6M1313.5 679.7c24-2.7 49.8-5.1 77.3-7.1M1067 731.2s27.2-11 82-23.8"/><g stroke="#000" stroke-width="4" stroke-miterlimit="10"><path fill="none" d="M2048.9 250.3h-32.1M2010 250.3h-34.4M1969.1 250.3h-18.3M2070.5 291.4l-18 7.7M2070.4 209.3l-48.1-20.7M2016.5 186.1l-29.2-12.5M1981.7 171.2l-15.6-6.7M2028.6 221.6l-31-6.7M1991.7 213.6l-16.6-3.6"/><g fill="none"><path d="M2339.3 250.3h32.1M2378.2 250.3h34.4M2419.1 250.3h18.3M2317.8 209.3l48.1-20.7M2371.7 186.1l29.2-12.5M2359.6 221.6l31-6.7M2396.5 213.6l16.6-3.6M2317.8 291.3l48.1 20.6M2371.7 314.4l29.2 12.5M2406.5 329.3l15.6 6.7M2359.6 278.9l31 6.8M2396.5 286.9l16.6 3.6M2339.3 250.3h32.1M2378.2 250.3h34.4M2419.1 250.3h18.3M2317.8 209.3l48.1-20.7M2371.7 186.1l29.2-12.5M2406.5 171.2l15.6-6.7M2359.6 221.6l31-6.7M2396.5 213.6l16.6-3.6M2371.7 314.4l29.2 12.5M2406.5 329.3l15.6 6.7M2359.6 278.9l31 6.8M2396.5 286.9l16.6 3.6"/></g><path fill="#FFF" d="M2289.6 247.3c0 52.8-42.8 95.5-95.5 95.5-52.8 0-95.5-42.8-95.5-95.5 0-52.8 42.8-95.5 95.5-95.5 52.8 0 95.5 42.8 95.5 95.5z"/><path fill="none" d="M1982 396.7h227.9s5.8-33.4-28.9-24.4c10.1-22.9-26.5-47.9-44.9-21.8 1.6-21.7-33.6-54-68.1-18-.2-46.1-88.3-104.9-137.4-18 0 0-50.1-18.6-50.1 29.5 0 0-18.3-1.6-18.3 27.3h198.4"/></g><g fill="none" stroke="#000" stroke-width="4" stroke-linejoin="round" stroke-miterlimit="10"><path d="M1502.1 178h-167.3s-4.3-24.5 21.2-17.9c-7.4-16.8 19.5-35.2 33-16-1.1-15.9 24.7-39.6 50-13.2.1-33.9 64.8-77 100.8-13.2 0 0 36.8-13.7 36.8 21.7 0 0 13.4-1.2 13.4 20h-121.8M1616.5 159.2h84.1M1729.6 159.2h42.1"/></g><path fill="none" stroke="#000" stroke-width="4" stroke-miterlimit="10" d="M1770.1 53.4c0-12.5-7.9-11.8-7.9-11.8 0-20.8-21.6-12.7-21.6-12.7-21.1-37.5-59.1-12.1-59.2 7.7-22.4-9.3-28.2 16.7-28.2 16.7h66"/><path fill="none" stroke="#000" stroke-width="4" stroke-linecap="round" stroke-linejoin="round" stroke-miterlimit="10" d="M1406 510.2c-5.7 6.4-9.4 13.7-14.4 22.6 0 0-58-21.6-58 34.2 0 0-20.7-8.1-20.7 25.3M1609.6 568.2c-11.3-15.1-27.9-27.5-59.1-14.6-.2-39.7-56.7-87.5-109-67.9M344.4 329.6s-4.9-28.1 24.3-20.6c-8.5-19.3 22.4-40.4 37.9-18.4-1.3-18.3 28.3-45.5 57.4-15.2.2-38.9 74.5-88.4 115.9-15.1 0 0 42.2-15.7 42.2 24.9 0 0 15.4-1.4 15.4 23h-90.4"/><g fill="none" stroke="#050505" stroke-width="4" stroke-linecap="round" stroke-linejoin="round" stroke-miterlimit="10"><path d="M1617.8 333.7s9.2-1.7 9.5-11.7M1636.7 333.7s-9.2-1.7-9.5-11.7M1636.7 333.7s-9.2 1.7-9.5 11.7M1617.8 333.7s9.2 1.7 9.5 11.7"/></g><g fill="none" stroke="#050505" stroke-width="4" stroke-linecap="round" stroke-linejoin="round" stroke-miterlimit="10"><path d="M1948.7 32.2s9.2-1.7 9.5-11.7M1967.6 32.2s-9.2-1.7-9.5-11.7M1967.6 32.2s-9.2 1.7-9.5 11.7M1948.7 32.2s9.2 1.7 9.5 11.7"/></g><path fill="none" stroke="#000" stroke-width="4" stroke-linejoin="round" stroke-miterlimit="10" d="M1960.1 622.9c-11.6-9.1-26.2-14.2-41.8-13.3-12.6.7-24.2 5.3-33.7 12.6-7.5-16.9-21.6-29.8-38.6-35.4v-1c-2.6-44.7-41-78.8-85.7-76.2-35.4 2.1-64.2 26.6-73.3 59"/><path fill="none" stroke="#000" stroke-width="4" stroke-linecap="round" stroke-linejoin="round" stroke-miterlimit="10" d="M1993.1 608.1c22.1-38.9 71.6-52.5 110.5-30.4.3.2.6.3.8.5 0 0 88.7-73.5 162.1-14.3"/><path fill="none" stroke="#000" stroke-width="4" stroke-linecap="round" stroke-linejoin="round" stroke-miterlimit="10" d="M1908.3 665.1c4.9-9.7 16-22.8 38.1-13.7.1-29.4 56.4-67 87.7-11.5 0 0 32-11.9 32 18.8 0 0 13.8.4 13.8 18.9"/><g fill="none" stroke="#000" stroke-width="4" stroke-linecap="round" stroke-linejoin="round" stroke-miterlimit="10"><path d="M2049.3 523.7v8M2049.3 545v8M2063.9 538.3h-8M2042.6 538.3h-7.9M2059.6 548.7l-5.6-5.7M2044.6 533.6l-5.7-5.6M2038.9 548.7l5.7-5.7M2054 533.6l5.6-5.6"/></g><g fill="none" stroke="#000" stroke-width="4" stroke-linecap="round" stroke-linejoin="round" stroke-miterlimit="10"><path d="M473.2 417.9v7.9M473.2 439.2v7.9M487.9 432.5h-8M466.6 432.5h-8M483.6 442.9l-5.7-5.7M468.5 427.8l-5.6-5.7M462.9 442.9l5.6-5.7M477.9 427.8l5.7-5.7"/></g><path fill="none" stroke="#000" stroke-width="4" stroke-miterlimit="10" d="M1806.5 664.3s223.6-30.8 437.6 124.7"/><g fill="none" stroke="#000" stroke-width="4" stroke-linecap="round" stroke-linejoin="round" stroke-miterlimit="10"><path d="M1124.9 90.8v8M1124.9 112.1v8M1139.5 105.5h-7.9M1118.2 105.5h-7.9M1135.3 115.8l-5.7-5.6M1120.2 100.8l-5.7-5.7M1114.5 115.8l5.7-5.6M1129.6 100.8l5.7-5.7"/></g><g fill="none" stroke="#000" stroke-width="4" stroke-linecap="round" stroke-linejoin="round" stroke-miterlimit="10"><path d="M16.6 193.3v8M16.6 214.6v7.9M31.3 207.9h-8M10 207.9H2M27 218.3l-5.7-5.7M11.9 203.2l-5.6-5.6M6.3 218.3l5.6-5.7M21.3 203.2l5.7-5.6"/></g><g fill="none" stroke-width="4" stroke-linecap="round" stroke-linejoin="round" stroke-miterlimit="10"><g stroke="#050505"><path d="M216.4 390.6s14.9-2.8 15.3-18.9M247 390.6s-14.9-2.8-15.3-18.9M247 390.6s-14.9 2.8-15.3 18.9M216.4 390.6s14.9 2.8 15.3 18.9"/></g><g stroke="#000"><path d="M30.8 388.8h55.5M99.6 388.8h36.2M149.1 388.8h22.2M184.1 388.8h13.8"/></g></g><g fill="none" stroke-width="4" stroke-linecap="round" stroke-linejoin="round" stroke-miterlimit="10"><g stroke="#050505"><path d="M775.6 86.2s14.9-2.8 15.3-18.9M806.1 86.2s-14.9-2.8-15.3-18.9M806.1 86.2s-14.9 2.8-15.3 18.9M775.6 86.2s14.9 2.8 15.3 18.9"/></g><g stroke="#000"><path d="M590 84.4h55.4M658.8 84.4h36.1M708.3 84.4h22.1M743.3 84.4h13.8"/></g></g><path fill="none" stroke="#000" stroke-width="4" stroke-linejoin="round" stroke-miterlimit="10" d="M1150.3 572.2c-30.4-19.3-64.6-24.2-97.3-18.3"/><path fill="none" stroke="#000" stroke-width="4" stroke-linecap="round" stroke-linejoin="round" stroke-miterlimit="10" d="M614.9 558.2c-157-65-239.9 62.9-244 128"/><path fill="#FFF" d="M332 734.8h101.4v128.4H332zM535.4 734.8h101.4v128.4H535.4z"/><g stroke="#000" stroke-width="4" stroke-miterlimit="10"><path fill="none" d="M433.3 733.8L384.7 677H382l-48.6 56.8"/><path fill="#FFF" d="M533.9 733.8L485.3 677h-2.7L434 733.8"/><path fill="none" d="M636 733.8L587.4 677h-2.7l-48.6 56.8"/><path fill="#FFF" d="M331.7 733.8L283.1 677h-2.7l-48.6 56.8"/><path fill="none" d="M231.9 734.1h404.6v129.2H231.9zM433.5 735.5v127.7M534.8 735.5v127.7M433.2 735.5v127.7M433.8 735.5v127.7M332 736.7v127.6M534.4 735.5v127.7"/><path fill="none" d="M545.7 817.1h20.1v45.6h-20.1zM587.8 750.6h24.9v37.1h-24.9zM553 750.6h16.9v37.1H553z"/><g fill="none"><path d="M580.8 811.6h42.4v25.3h-42.4zM589.8 811.1v25.7M614.2 811.4V837"/></g><path fill="none" d="M546.1 825.9h19.3M552 842.4h7.6M553.4 768.1h16.4M588.2 768.1H612M577.5 837h49v7.4h-49zM583.8 788.2h32.7v6.3h-32.7zM549.1 788.2h24.3v6.3h-24.3zM534.4 735.7v128.6M444 817.1h20.1v45.6H444zM486.1 750.6H511v37.1h-24.9zM451.2 750.6h16.9v37.1h-16.9z"/><g fill="none"><path d="M479 811.6h42.4v25.3H479zM488 811.1v25.7M512.4 811.4V837"/></g><path fill="none" d="M444.3 825.9h19.4M450.2 842.4h7.6M451.6 768.1H468M486.5 768.1h23.7M475.7 837h49v7.4h-49zM482.1 788.2h32.7v6.3h-32.7zM447.4 788.2h24.3v6.3h-24.3zM342.2 817.1h20.1v45.6h-20.1zM384.3 750.6h24.9v37.1h-24.9zM349.5 750.6h16.9v37.1h-16.9z"/><g fill="none"><path d="M377.2 811.6h42.4v25.3h-42.4zM386.2 811.1v25.7M410.7 811.4V837"/></g><path fill="none" d="M342.6 825.9h19.3M348.5 842.4h7.5M349.8 768.1h16.4M384.7 768.1h23.7M373.9 837h49v7.4h-49zM380.3 788.2H413v6.3h-32.7zM345.6 788.2h24.3v6.3h-24.3zM330.9 735.7v128.6M432.6 735.7v128.6M241.6 817.1h20.1v45.6h-20.1zM283.7 750.6h24.9v37.1h-24.9zM248.8 750.6h16.9v37.1h-16.9z"/><g fill="none"><path d="M276.6 811.6H319v25.3h-42.4zM285.6 811.1v25.7M310 811.4V837"/></g><path fill="none" d="M242 825.9h19.3M247.8 842.4h7.6M249.2 768.1h16.4M284.1 768.1h23.7M273.3 837h49v7.4h-49zM279.7 788.2h32.7v6.3h-32.7zM245 788.2h24.3v6.3H245z"/></g><g stroke="#000" stroke-width="4" stroke-linejoin="round" stroke-miterlimit="10"><path fill="none" stroke-linecap="round" d="M889.5 219.1h162.8v525H889.5z"/><path fill="#FFF" stroke-linecap="round" d="M889.5 168.2h162.8v30.9H889.5z"/><g fill="none"><path d="M888.8 256h163.6M888.8 293.6h163.6M888.8 331.1h163.6M888.8 368.7h163.6M888.8 406.2h163.6M1052.4 443.8H888.8M888.8 481.3h163.6M888.8 518.9h163.6M888.8 556.4h163.6M888.8 594h163.6M888.8 631.5h163.6M888.8 669.1h163.6M888.8 706.6h163.6"/></g><g fill="none" stroke-linecap="round"><path d="M890.1 267h162M890.1 304.5h162M890.1 342.1h162M890.1 379.6h162M890.1 417.2h162M890.1 454.7h162M890.1 492.3h162M890.1 529.8h162M890.1 567.4h162M890.1 604.9h162M890.1 642.5h162M890.1 680h162M890.1 717.6h162"/></g><path fill="none" d="M897.3 198.1v22.8M910.8 198.1v22.8M924.2 198.1v22.8M937.6 198.1v22.8M951.1 198.1v22.8M964.5 198.1v22.8M977.9 198.1v22.8M991.4 198.1v22.8M1004.8 198.1v22.8M1018.2 198.1v22.8M1031.7 198.1v22.8M1045.1 198.1v22.8M913.6 267.5h12.7v14.1h-12.7zM935.5 267.5h12.7v14.1h-12.7zM993.8 267.5h12.7v14.1h-12.7zM1015.7 267.5h12.7v14.1h-12.7zM913.6 305.8h12.7v14.1h-12.7zM935.5 305.8h12.7v14.1h-12.7zM993.8 305.8h12.7v14.1h-12.7zM1015.7 305.8h12.7v14.1h-12.7zM913.6 342.3h12.7v14.1h-12.7zM935.5 342.3h12.7v14.1h-12.7zM993.8 342.3h12.7v14.1h-12.7zM1015.7 342.3h12.7v14.1h-12.7zM913.6 380.6h12.7v14.1h-12.7zM935.5 380.6h12.7v14.1h-12.7zM993.8 380.6h12.7v14.1h-12.7zM1015.7 380.6h12.7v14.1h-12.7zM913.6 417.1h12.7v14.1h-12.7zM935.5 417.1h12.7v14.1h-12.7zM993.8 417.1h12.7v14.1h-12.7zM1015.7 417.1h12.7v14.1h-12.7zM913.6 455.5h12.7v14.1h-12.7zM935.5 455.5h12.7v14.1h-12.7zM993.8 455.5h12.7v14.1h-12.7zM1015.7 455.5h12.7v14.1h-12.7zM913.6 492h12.7v14.1h-12.7zM935.5 492h12.7v14.1h-12.7zM993.8 492h12.7v14.1h-12.7zM1015.7 492h12.7v14.1h-12.7zM913.6 530.3h12.7v14.1h-12.7zM935.5 530.3h12.7v14.1h-12.7zM993.8 530.3h12.7v14.1h-12.7zM1015.7 530.3h12.7v14.1h-12.7zM913.6 568.6h12.7v14.1h-12.7zM935.5 568.6h12.7v14.1h-12.7zM993.8 568.6h12.7v14.1h-12.7zM1015.7 568.6h12.7v14.1h-12.7zM913.6 605.1h12.7v14.1h-12.7zM935.5 605.1h12.7v14.1h-12.7zM993.8 605.1h12.7v14.1h-12.7zM1015.7 605.1h12.7v14.1h-12.7zM913.6 643.5h12.7v14.1h-12.7zM935.5 643.5h12.7v14.1h-12.7zM993.8 643.5h12.7v14.1h-12.7zM1015.7 643.5h12.7v14.1h-12.7zM913.6 680h12.7v14.1h-12.7zM935.5 680h12.7v14.1h-12.7zM993.8 680h12.7v14.1h-12.7zM1015.7 680h12.7v14.1h-12.7zM913.6 718.3h12.7v14.1h-12.7zM935.5 718.3h12.7v14.1h-12.7zM993.8 718.3h12.7v14.1h-12.7zM1015.7 718.3h12.7v14.1h-12.7z"/></g><g stroke="#000" stroke-width="4" stroke-linejoin="round" stroke-miterlimit="10"><path fill="none" stroke-linecap="round" d="M1150.5 292.2h162.8v525h-162.8z"/><path fill="#FFF" stroke-linecap="round" d="M1150.5 241.3h162.8v30.9h-162.8z"/><g fill="none"><path d="M1149.8 329.1h163.5M1149.8 366.7h163.5M1149.8 404.2h163.5M1149.8 441.8h163.5M1149.8 479.3h163.5M1313.3 516.9h-163.5M1149.8 554.4h163.5M1149.8 592h163.5M1149.8 629.5h163.5M1149.8 667.1h163.5M1149.8 704.6h163.5M1149.8 742.2h163.5M1149.8 779.7h163.5"/></g><g fill="none" stroke-linecap="round"><path d="M1151.1 340.1h162M1151.1 377.6h162M1151.1 415.2h162M1151.1 452.7h162M1151.1 490.3h162M1151.1 527.8h162M1151.1 565.4h162M1151.1 602.9h162M1151.1 640.5h162M1151.1 678h162M1151.1 715.6h162M1151.1 753.1h162M1151.1 790.7h162"/></g><path fill="none" d="M1158.3 271.2V294M1171.7 271.2V294M1185.2 271.2V294M1198.6 271.2V294M1212.1 271.2V294M1225.5 271.2V294M1238.9 271.2V294M1252.4 271.2V294M1265.8 271.2V294M1279.2 271.2V294M1292.7 271.2V294M1306.1 271.2V294M1174.6 340.6h12.7v14.1h-12.7zM1196.5 340.6h12.7v14.1h-12.7zM1254.8 340.6h12.7v14.1h-12.7zM1276.7 340.6h12.7v14.1h-12.7zM1174.6 378.9h12.7V393h-12.7zM1196.5 378.9h12.7V393h-12.7zM1254.8 378.9h12.7V393h-12.7zM1276.7 378.9h12.7V393h-12.7zM1174.6 415.4h12.7v14.1h-12.7zM1196.5 415.4h12.7v14.1h-12.7zM1254.8 415.4h12.7v14.1h-12.7zM1276.7 415.4h12.7v14.1h-12.7zM1174.6 453.7h12.7v14.1h-12.7zM1196.5 453.7h12.7v14.1h-12.7zM1254.8 453.7h12.7v14.1h-12.7zM1276.7 453.7h12.7v14.1h-12.7zM1174.6 490.2h12.7v14.1h-12.7zM1196.5 490.2h12.7v14.1h-12.7zM1254.8 490.2h12.7v14.1h-12.7zM1276.7 490.2h12.7v14.1h-12.7zM1174.6 528.6h12.7v14.1h-12.7zM1196.5 528.6h12.7v14.1h-12.7zM1254.8 528.6h12.7v14.1h-12.7zM1276.7 528.6h12.7v14.1h-12.7zM1174.6 565.1h12.7v14.1h-12.7zM1196.5 565.1h12.7v14.1h-12.7zM1254.8 565.1h12.7v14.1h-12.7zM1276.7 565.1h12.7v14.1h-12.7zM1174.6 603.4h12.7v14.1h-12.7zM1196.5 603.4h12.7v14.1h-12.7zM1254.8 603.4h12.7v14.1h-12.7zM1276.7 603.4h12.7v14.1h-12.7zM1174.6 641.7h12.7v14.1h-12.7zM1196.5 641.7h12.7v14.1h-12.7zM1254.8 641.7h12.7v14.1h-12.7zM1276.7 641.7h12.7v14.1h-12.7zM1174.6 678.2h12.7v14.1h-12.7zM1196.5 678.2h12.7v14.1h-12.7zM1254.8 678.2h12.7v14.1h-12.7zM1276.7 678.2h12.7v14.1h-12.7zM1174.6 716.6h12.7v14.1h-12.7zM1196.5 716.6h12.7v14.1h-12.7zM1254.8 716.6h12.7v14.1h-12.7zM1276.7 716.6h12.7v14.1h-12.7zM1174.6 753.1h12.7v14.1h-12.7zM1196.5 753.1h12.7v14.1h-12.7zM1254.8 753.1h12.7v14.1h-12.7zM1276.7 753.1h12.7v14.1h-12.7zM1174.6 791.4h12.7v14.1h-12.7zM1196.5 791.4h12.7v14.1h-12.7zM1254.8 791.4h12.7v14.1h-12.7zM1276.7 791.4h12.7v14.1h-12.7z"/></g><g fill="none" stroke="#000" stroke-width="4" stroke-miterlimit="10"><path d="M1491.9 619.3h9.3v14.8h-9.3zM1491.9 629.7h9.2M1515.7 619.3h9.3v14.8h-9.3zM1515.7 629.7h9.3M1539.6 619.3h9.3v14.8h-9.3zM1539.6 629.7h9.3M1563.5 619.3h9.3v14.8h-9.3zM1563.5 629.7h9.3M1587.4 619.3h9.3v14.8h-9.3zM1587.4 629.7h9.3M1611.3 619.3h9.3v14.8h-9.3zM1611.3 629.7h9.3M1635.2 619.3h9.3v14.8h-9.3zM1635.2 629.7h9.2M1491.9 646.6h9.3v14.8h-9.3zM1491.9 656.9h9.2M1515.7 646.6h9.3v14.8h-9.3zM1515.7 656.9h9.3M1539.6 646.6h9.3v14.8h-9.3zM1539.6 656.9h9.3M1563.5 646.6h9.3v14.8h-9.3zM1563.5 656.9h9.3"/><g><path d="M1587.4 646.6h9.3v14.8h-9.3zM1587.4 656.9h9.3"/></g><g><path d="M1611.3 646.6h9.3v14.8h-9.3zM1611.3 656.9h9.3"/></g><g><path d="M1635.2 646.6h9.3v14.8h-9.3zM1635.2 656.9h9.2"/></g><g><path d="M1491.9 674.1h9.3v14.8h-9.3zM1491.9 684.4h9.2M1515.7 674.1h9.3v14.8h-9.3zM1515.7 684.4h9.3M1539.6 674.1h9.3v14.8h-9.3zM1539.6 684.4h9.3M1563.5 674.1h9.3v14.8h-9.3zM1563.5 684.4h9.3"/><g><path d="M1587.4 674.1h9.3v14.8h-9.3zM1587.4 684.4h9.3"/></g><g><path d="M1611.3 674.1h9.3v14.8h-9.3zM1611.3 684.4h9.3"/></g><g><path d="M1635.2 674.1h9.3v14.8h-9.3zM1635.2 684.4h9.2"/></g></g><g><path d="M1659.1 619.3h9.3v14.8h-9.3zM1659.1 629.7h9.2"/></g><g><path d="M1682.9 619.3h9.3v14.8h-9.3zM1682.9 629.7h9.3"/></g><g><path d="M1706.8 619.3h9.3v14.8h-9.3zM1706.8 629.7h9.3"/></g><g><path d="M1730.7 619.3h9.3v14.8h-9.3zM1730.7 629.7h9.3"/></g><g><path d="M1754.6 619.3h9.3v14.8h-9.3zM1754.6 629.7h9.3"/></g><g><path d="M1778.5 619.3h9.3v14.8h-9.3zM1778.5 629.7h9.2"/></g><g><path d="M1659.1 646.6h9.3v14.8h-9.3zM1659.1 656.9h9.2"/></g><g><path d="M1682.9 646.6h9.3v14.8h-9.3zM1682.9 656.9h9.3"/></g><g><path d="M1706.8 646.6h9.3v14.8h-9.3zM1706.8 656.9h9.3"/></g><g><path d="M1730.7 646.6h9.3v14.8h-9.3zM1730.7 656.9h9.3"/></g><g><path d="M1754.6 646.6h9.3v14.8h-9.3zM1754.6 656.9h9.3"/></g><g><path d="M1778.5 646.6h9.3v14.8h-9.3zM1778.5 656.9h9.2"/></g><g><path d="M1659.1 674.1h9.3v14.8h-9.3zM1659.1 684.4h9.2"/></g><g><path d="M1682.9 674.1h9.3v14.8h-9.3zM1682.9 684.4h9.3"/></g><g><path d="M1706.8 674.1h9.3v14.8h-9.3zM1706.8 684.4h9.3"/></g><g><path d="M1730.7 674.1h9.3v14.8h-9.3zM1730.7 684.4h9.3"/></g><g><path d="M1754.6 674.1h9.3v14.8h-9.3zM1754.6 684.4h9.3"/></g><g><path d="M1778.5 674.1h9.3v14.8h-9.3zM1778.5 684.4h9.2"/></g></g><path fill="#FFF" d="M1772 750.9h101.4v128.4H1772zM1975.3 750.9h101.4v128.4h-101.4z"/><g stroke="#000" stroke-width="4" stroke-miterlimit="10"><path fill="none" d="M1873.3 749.9l-48.7-56.8h-2.7l-48.6 56.8"/><path fill="#FFF" d="M1973.8 749.9l-48.6-56.8h-2.7l-48.6 56.8"/><path fill="none" d="M2075.9 749.9l-48.6-56.8h-2.7l-48.6 56.8"/><path fill="#FFF" d="M1771.7 749.9l-48.6-56.8h-2.7l-48.7 56.8"/><path fill="none" d="M1671.8 750.2h404.6v129.2h-404.6zM1873.4 751.6v127.7M1974.7 751.6v127.7M1873.1 751.6v127.7M1873.7 751.6v127.7M1772 752.8v127.6M1974.3 751.6v127.7"/><path fill="none" d="M1985.7 833.2h20.1v45.6h-20.1zM2027.8 766.7h24.9v37.1h-24.9zM1992.9 766.7h16.9v37.1h-16.9z"/><g fill="none"><path d="M2020.7 827.7h42.4V853h-42.4zM2029.7 827.3v25.6M2054.1 827.5v25.6"/></g><path fill="none" d="M1986 842h19.4M1991.9 858.5h7.6M1993.3 784.2h16.4M2028.2 784.2h23.7M2017.4 853.1h49v7.4h-49zM2023.8 804.3h32.7v6.3h-32.7zM1989.1 804.3h24.3v6.3h-24.3zM1974.3 751.8v128.6M1883.9 833.2h20.1v45.6h-20.1zM1926 766.7h24.9v37.1H1926zM1891.2 766.7h16.9v37.1h-16.9z"/><g fill="none"><path d="M1918.9 827.7h42.4V853h-42.4zM1927.9 827.3v25.6M1952.4 827.5v25.6"/></g><path fill="none" d="M1884.3 842h19.3M1890.2 858.5h7.5M1891.5 784.2h16.4M1926.4 784.2h23.7M1915.6 853.1h49v7.4h-49zM1922 804.3h32.7v6.3H1922zM1887.3 804.3h24.3v6.3h-24.3zM1782.1 833.2h20.1v45.6h-20.1zM1824.2 766.7h24.9v37.1h-24.9zM1789.4 766.7h16.9v37.1h-16.9z"/><g fill="none"><path d="M1817.2 827.7h42.4V853h-42.4zM1826.2 827.3v25.6M1850.6 827.5v25.6"/></g><path fill="none" d="M1782.5 842h19.3M1788.4 858.5h7.6M1789.8 784.2h16.4M1824.6 784.2h23.8M1813.9 853.1h49v7.4h-49zM1820.2 804.3h32.7v6.3h-32.7zM1785.5 804.3h24.3v6.3h-24.3zM1770.8 751.8v128.6M1872.6 751.8v128.6M1681.5 833.2h20.1v45.6h-20.1zM1723.6 766.7h24.9v37.1h-24.9zM1688.8 766.7h16.9v37.1h-16.9z"/><g fill="none"><path d="M1716.5 827.7h42.4V853h-42.4zM1725.5 827.3v25.6M1750 827.5v25.6"/></g><path fill="none" d="M1681.9 842h19.3M1687.8 858.5h7.5M1689.2 784.2h16.4M1724 784.2h23.7M1713.2 853.1h49v7.4h-49zM1719.6 804.3h32.7v6.3h-32.7zM1684.9 804.3h24.3v6.3h-24.3z"/></g><g fill="none" stroke="#050505" stroke-width="4" stroke-linecap="round" stroke-linejoin="round" stroke-miterlimit="10"><path d="M2617.8 281.7s9.2-1.7 9.5-11.7M2636.7 281.7s-9.2-1.7-9.5-11.7M2636.7 281.7s-9.2 1.7-9.5 11.7M2617.8 281.7s9.2 1.7 9.5 11.7"/></g><g fill="none" stroke="#050505" stroke-width="4" stroke-linecap="round" stroke-linejoin="round" stroke-miterlimit="10"><path d="M2850.2 387.7s9.2-1.7 9.5-11.7M2869.1 387.7s-9.2-1.7-9.5-11.7M2869.1 387.7s-9.2 1.7-9.5 11.7M2850.2 387.7s9.2 1.7 9.5 11.7"/></g><g fill="none" stroke="#050505" stroke-width="4" stroke-linecap="round" stroke-linejoin="round" stroke-miterlimit="10"><path d="M685.8 243.7s9.2-1.7 9.5-11.7M704.7 243.7s-9.2-1.7-9.5-11.7M704.7 243.7s-9.2 1.7-9.5 11.7M685.8 243.7s9.2 1.7 9.5 11.7"/></g><g fill="none" stroke="#050505" stroke-width="4" stroke-linecap="round" stroke-linejoin="round" stroke-miterlimit="10"><path d="M345.8 13.7S355 12 355.3 2M364.7 13.7S355.5 12 355.2 2M364.7 13.7s-9.2 1.7-9.5 11.7M345.8 13.7s9.2 1.7 9.5 11.7"/></g><path fill="none" stroke="#000" stroke-width="4" stroke-miterlimit="10" d="M2670.8 641.4c67.9 10 143.1 23.7 226.2 41.8M2060.9 695.2s42.4-52.2 204.5-70.7"/><g><path fill="#FFF" d="M2367 525.4h101.4v128.4H2367zM2570.4 525.4h101.4v128.4h-101.4z"/><g stroke="#000" stroke-width="4" stroke-miterlimit="10"><path fill="none" d="M2468.3 524.3l-48.6-56.8h-2.7l-48.6 56.8"/><path fill="#FFF" d="M2568.9 524.3l-48.6-56.8h-2.7l-48.6 56.8"/><path fill="none" d="M2671 524.3l-48.6-56.8h-2.7l-48.6 56.8"/><path fill="#FFF" d="M2366.7 524.3l-48.6-56.8h-2.7l-48.6 56.8"/><path fill="none" d="M2671.5 653.8h-404.6V524.7h404.6zM2468.5 526.1v127.7M2569.8 526.1v127.7M2468.2 526.1v127.7M2468.8 526.1v127.7M2367 527.2v127.7M2569.4 526.1v127.7"/><path fill="none" d="M2580.7 607.7h20.1v45.6h-20.1zM2622.8 541.2h24.9v37.1h-24.9zM2588 541.2h16.9v37.1H2588z"/><g fill="none"><path d="M2615.8 602.2h42.4v25.3h-42.4zM2624.8 601.7v25.7M2649.2 602v25.6"/></g><path fill="none" d="M2581.1 616.4h19.3M2587 633h7.6M2588.4 558.7h16.4M2623.2 558.7h23.8M2612.5 627.5h49v7.4h-49zM2618.8 578.8h32.7v6.3h-32.7zM2584.1 578.8h24.3v6.3h-24.3zM2569.4 526.2v128.7M2479 607.7h20.1v45.6H2479zM2521.1 541.2h24.9v37.1h-24.9zM2486.2 541.2h16.9v37.1h-16.9z"/><g fill="none"><path d="M2514 602.2h42.4v25.3H2514zM2523 601.7v25.7M2547.4 602v25.6"/></g><path fill="none" d="M2479.3 616.4h19.4M2485.2 633h7.6M2486.6 558.7h16.4M2521.5 558.7h23.7M2510.7 627.5h49v7.4h-49zM2517.1 578.8h32.7v6.3h-32.7zM2482.4 578.8h24.3v6.3h-24.3zM2377.2 607.7h20.1v45.6h-20.1zM2419.3 541.2h24.9v37.1h-24.9zM2384.5 541.2h16.9v37.1h-16.9z"/><g fill="none"><path d="M2412.2 602.2h42.4v25.3h-42.4zM2421.2 601.7v25.7M2445.7 602v25.6"/></g><path fill="none" d="M2377.6 616.4h19.3M2383.5 633h7.5M2384.8 558.7h16.4M2419.7 558.7h23.7M2408.9 627.5h49v7.4h-49zM2415.3 578.8h32.7v6.3h-32.7zM2380.6 578.8h24.3v6.3h-24.3zM2365.9 526.2v128.7M2467.6 526.2v128.7M2276.6 607.7h20.1v45.6h-20.1zM2318.7 541.2h24.9v37.1h-24.9zM2283.8 541.2h16.9v37.1h-16.9z"/><g fill="none"><path d="M2311.6 602.2h42.4v25.3h-42.4zM2320.6 601.7v25.7M2345 602v25.6"/></g><path fill="none" d="M2277 616.4h19.3M2282.8 633h7.6M2284.2 558.7h16.4M2319.1 558.7h23.7M2308.3 627.5h49v7.4h-49zM2314.7 578.8h32.7v6.3h-32.7zM2280 578.8h24.3v6.3H2280z"/></g></g><path fill="none" stroke="#000" stroke-width="4" stroke-linejoin="round" stroke-miterlimit="10" d="M500.9 695.2c8.4-24.2 34-77 104.1-56.4-27.4-71.7 73.9-215.9 202.3-110.6 0 0 13.6-54 80.6-51"/></svg>