<?xml version="1.0" encoding="utf-8"?>
<!-- Generator: Adobe Illustrator 18.0.0, SVG Export Plug-In . SVG Version: 6.00 Build 0)  -->
<!DOCTYPE svg PUBLIC "-//W3C//DTD SVG 1.1//EN" "http://www.w3.org/Graphics/SVG/1.1/DTD/svg11.dtd">
<svg version="1.1" id="Layer_1" xmlns="http://www.w3.org/2000/svg" xmlns:xlink="http://www.w3.org/1999/xlink" x="0px" y="0px"
	 viewBox="636.8 0 1623.8 938.5" enable-background="new 636.8 0 1623.8 938.5" xml:space="preserve">
<path fill="none" stroke="#000000" stroke-width="4" stroke-linejoin="round" stroke-miterlimit="10" d="M1312.3,770.4
	c29,7,58.8,14.9,89.6,24 M1053.1,730.6c30.5,1.8,62.4,4.8,95.9,9.2"/>
<path fill="none" stroke="#000000" stroke-width="4" stroke-linecap="round" stroke-linejoin="round" stroke-miterlimit="10" d="
	M647.9,799.6C728,738,790,714,887.9,722.2"/>
<g>
	<path fill="#FFFFFF" stroke="#000000" stroke-width="4" stroke-miterlimit="10" d="M1447.9,598.2l-13-225.7H1415l-12.9,225.7
		 M1387.1,598.6h75.7v9.2h-75.7V598.6z M1391.8,609v92.4h66.4V609"/>
</g>
<path fill="#FFFFFF" stroke="#000000" stroke-width="4" stroke-miterlimit="10" d="M1474.4,568.1h330.7v133.3h-330.7L1474.4,568.1z"
	/>
<path fill="none" stroke="#000000" stroke-width="4" stroke-miterlimit="10" d="M1474.4,598.2h331.8 M1474.4,606.2h331.8
	 M1456.9,669.1c5.7-0.2,11.5-0.4,17.3-0.6 M1313.5,679.7c24-2.7,49.8-5.1,77.3-7.1 M1067,731.2c0,0,27.2-11,82-23.8"/>
<g>
	<path fill="none" stroke="#050505" stroke-width="4" stroke-linecap="round" stroke-linejoin="round" stroke-miterlimit="10" d="
		M1617.8,333.7c0,0,9.2-1.7,9.5-11.7 M1636.7,333.7c0,0-9.2-1.7-9.5-11.7 M1636.7,333.7c0,0-9.2,1.7-9.5,11.7 M1617.8,333.7
		c0,0,9.2,1.7,9.5,11.7"/>
</g>
<path fill="none" stroke="#000000" stroke-width="4" stroke-linejoin="round" stroke-miterlimit="10" d="M1960.1,622.9
	c-11.6-9.1-26.2-14.2-41.8-13.3c-12.6,0.7-24.2,5.3-33.7,12.6c-7.5-16.9-21.6-29.8-38.6-35.4v-1c-2.6-44.7-41-78.8-85.7-76.2
	c-35.4,2.1-64.2,26.6-73.3,59"/>
<path fill="none" stroke="#000000" stroke-width="4" stroke-linecap="round" stroke-linejoin="round" stroke-miterlimit="10" d="
	M1896.4,661.8c6.1-9,18.8-20.5,39.6-8.6c3.9-29.1,64.6-59.1,88.5,0c0,0,33.3-7.6,29.3,22.8c14.9,2.4,12.7,9.5,11.2,20.5"/>
<path fill="none" stroke="#000000" stroke-width="4" stroke-miterlimit="10" d="M1806.5,664.3c0,0,223.6-30.8,437.6,124.7"/>
<path fill="none" stroke="#000000" stroke-width="4" stroke-linejoin="round" stroke-miterlimit="10" d="M1150.3,572.2
	c-30.4-19.3-64.6-24.2-97.3-18.3"/>
<g>
	<path fill="none" stroke="#000000" stroke-width="4" stroke-linecap="round" stroke-linejoin="round" stroke-miterlimit="10" d="
		M889.5,219.1h162.8v525H889.5V219.1z"/>
	
		<path fill="#FFFFFF" stroke="#000000" stroke-width="4" stroke-linecap="round" stroke-linejoin="round" stroke-miterlimit="10" d="
		M889.5,168.2h162.8v30.9H889.5V168.2z"/>
	<g>
		<path fill="none" stroke="#000000" stroke-width="4" stroke-linejoin="round" stroke-miterlimit="10" d="M888.8,256h163.6
			 M888.8,293.6h163.6 M888.8,331.1h163.6 M888.8,368.7h163.6 M888.8,406.2h163.6 M1052.4,443.8H888.8 M888.8,481.3h163.6
			 M888.8,518.9h163.6 M888.8,556.4h163.6 M888.8,594h163.6 M888.8,631.5h163.6 M888.8,669.1h163.6 M888.8,706.6h163.6"/>
	</g>
	<g>
		<path fill="none" stroke="#000000" stroke-width="4" stroke-linecap="round" stroke-linejoin="round" stroke-miterlimit="10" d="
			M890.1,267h162 M890.1,304.5h162 M890.1,342.1h162 M890.1,379.6h162 M890.1,417.2h162 M890.1,454.7h162 M890.1,492.3h162
			 M890.1,529.8h162 M890.1,567.4h162 M890.1,604.9h162 M890.1,642.5h162 M890.1,680h162 M890.1,717.6h162"/>
	</g>
	<path fill="none" stroke="#000000" stroke-width="4" stroke-linejoin="round" stroke-miterlimit="10" d="M897.3,198.1v22.8
		 M910.8,198.1v22.8 M924.2,198.1v22.8 M937.6,198.1v22.8 M951.1,198.1v22.8 M964.5,198.1v22.8 M977.9,198.1v22.8 M991.4,198.1v22.8
		 M1004.8,198.1v22.8 M1018.2,198.1v22.8 M1031.7,198.1v22.8 M1045.1,198.1v22.8 M913.6,267.5h12.7v14.1h-12.7V267.5z M935.5,267.5
		h12.7v14.1h-12.7V267.5z M993.8,267.5h12.7v14.1h-12.7V267.5z M1015.7,267.5h12.7v14.1h-12.7V267.5z M913.6,305.8h12.7v14.1h-12.7
		V305.8z M935.5,305.8h12.7v14.1h-12.7V305.8z M993.8,305.8h12.7v14.1h-12.7V305.8z M1015.7,305.8h12.7v14.1h-12.7V305.8z
		 M913.6,342.3h12.7v14.1h-12.7V342.3z M935.5,342.3h12.7v14.1h-12.7V342.3z M993.8,342.3h12.7v14.1h-12.7V342.3z M1015.7,342.3
		h12.7v14.1h-12.7V342.3z M913.6,380.6h12.7v14.1h-12.7V380.6z M935.5,380.6h12.7v14.1h-12.7V380.6z M993.8,380.6h12.7v14.1h-12.7
		V380.6z M1015.7,380.6h12.7v14.1h-12.7V380.6z M913.6,417.1h12.7v14.1h-12.7V417.1z M935.5,417.1h12.7v14.1h-12.7V417.1z
		 M993.8,417.1h12.7v14.1h-12.7V417.1z M1015.7,417.1h12.7v14.1h-12.7V417.1z M913.6,455.5h12.7v14.1h-12.7V455.5z M935.5,455.5
		h12.7v14.1h-12.7V455.5z M993.8,455.5h12.7v14.1h-12.7V455.5z M1015.7,455.5h12.7v14.1h-12.7V455.5z M913.6,492h12.7v14.1h-12.7
		V492z M935.5,492h12.7v14.1h-12.7V492z M993.8,492h12.7v14.1h-12.7V492z M1015.7,492h12.7v14.1h-12.7V492z M913.6,530.3h12.7v14.1
		h-12.7V530.3z M935.5,530.3h12.7v14.1h-12.7V530.3z M993.8,530.3h12.7v14.1h-12.7V530.3z M1015.7,530.3h12.7v14.1h-12.7V530.3z
		 M913.6,568.6h12.7v14.1h-12.7V568.6z M935.5,568.6h12.7v14.1h-12.7V568.6z M993.8,568.6h12.7v14.1h-12.7V568.6z M1015.7,568.6
		h12.7v14.1h-12.7V568.6z M913.6,605.1h12.7v14.1h-12.7V605.1z M935.5,605.1h12.7v14.1h-12.7V605.1z M993.8,605.1h12.7v14.1h-12.7
		V605.1z M1015.7,605.1h12.7v14.1h-12.7V605.1z M913.6,643.5h12.7v14.1h-12.7V643.5z M935.5,643.5h12.7v14.1h-12.7V643.5z
		 M993.8,643.5h12.7v14.1h-12.7V643.5z M1015.7,643.5h12.7v14.1h-12.7V643.5z M913.6,680h12.7v14.1h-12.7V680z M935.5,680h12.7v14.1
		h-12.7V680z M993.8,680h12.7v14.1h-12.7V680z M1015.7,680h12.7v14.1h-12.7V680z M913.6,718.3h12.7v14.1h-12.7V718.3z M935.5,718.3
		h12.7v14.1h-12.7V718.3z M993.8,718.3h12.7v14.1h-12.7V718.3z M1015.7,718.3h12.7v14.1h-12.7V718.3z"/>
</g>
<g>
	<path fill="none" stroke="#000000" stroke-width="4" stroke-linecap="round" stroke-linejoin="round" stroke-miterlimit="10" d="
		M1150.5,292.2h162.8v525h-162.8V292.2z"/>
	
		<path fill="#FFFFFF" stroke="#000000" stroke-width="4" stroke-linecap="round" stroke-linejoin="round" stroke-miterlimit="10" d="
		M1150.5,241.3h162.8v30.9h-162.8V241.3z"/>
	<g>
		<path fill="none" stroke="#000000" stroke-width="4" stroke-linejoin="round" stroke-miterlimit="10" d="M1149.8,329.1h163.5
			 M1149.8,366.7h163.5 M1149.8,404.2h163.5 M1149.8,441.8h163.5 M1149.8,479.3h163.5 M1313.3,516.9h-163.5 M1149.8,554.4h163.5
			 M1149.8,592h163.5 M1149.8,629.5h163.5 M1149.8,667.1h163.5 M1149.8,704.6h163.5 M1149.8,742.2h163.5 M1149.8,779.7h163.5"/>
	</g>
	<g>
		<path fill="none" stroke="#000000" stroke-width="4" stroke-linecap="round" stroke-linejoin="round" stroke-miterlimit="10" d="
			M1151.1,340.1h162 M1151.1,377.6h162 M1151.1,415.2h162 M1151.1,452.7h162 M1151.1,490.3h162 M1151.1,527.8h162 M1151.1,565.4h162
			 M1151.1,602.9h162 M1151.1,640.5h162 M1151.1,678h162 M1151.1,715.6h162 M1151.1,753.1h162 M1151.1,790.7h162"/>
	</g>
	<path fill="none" stroke="#000000" stroke-width="4" stroke-linejoin="round" stroke-miterlimit="10" d="M1158.3,271.2V294
		 M1171.7,271.2V294 M1185.2,271.2V294 M1198.6,271.2V294 M1212.1,271.2V294 M1225.5,271.2V294 M1238.9,271.2V294 M1252.4,271.2V294
		 M1265.8,271.2V294 M1279.2,271.2V294 M1292.7,271.2V294 M1306.1,271.2V294 M1174.6,340.6h12.7v14.1h-12.7V340.6z M1196.5,340.6
		h12.7v14.1h-12.7V340.6z M1254.8,340.6h12.7v14.1h-12.7V340.6z M1276.7,340.6h12.7v14.1h-12.7V340.6z M1174.6,378.9h12.7V393h-12.7
		V378.9z M1196.5,378.9h12.7V393h-12.7V378.9z M1254.8,378.9h12.7V393h-12.7V378.9z M1276.7,378.9h12.7V393h-12.7V378.9z
		 M1174.6,415.4h12.7v14.1h-12.7V415.4z M1196.5,415.4h12.7v14.1h-12.7V415.4z M1254.8,415.4h12.7v14.1h-12.7V415.4z M1276.7,415.4
		h12.7v14.1h-12.7V415.4z M1174.6,453.7h12.7v14.1h-12.7V453.7z M1196.5,453.7h12.7v14.1h-12.7V453.7z M1254.8,453.7h12.7v14.1
		h-12.7V453.7z M1276.7,453.7h12.7v14.1h-12.7V453.7z M1174.6,490.2h12.7v14.1h-12.7V490.2z M1196.5,490.2h12.7v14.1h-12.7V490.2z
		 M1254.8,490.2h12.7v14.1h-12.7V490.2z M1276.7,490.2h12.7v14.1h-12.7V490.2z M1174.6,528.6h12.7v14.1h-12.7V528.6z M1196.5,528.6
		h12.7v14.1h-12.7V528.6z M1254.8,528.6h12.7v14.1h-12.7V528.6z M1276.7,528.6h12.7v14.1h-12.7V528.6z M1174.6,565.1h12.7v14.1
		h-12.7V565.1z M1196.5,565.1h12.7v14.1h-12.7V565.1z M1254.8,565.1h12.7v14.1h-12.7V565.1z M1276.7,565.1h12.7v14.1h-12.7V565.1z
		 M1174.6,603.4h12.7v14.1h-12.7V603.4z M1196.5,603.4h12.7v14.1h-12.7V603.4z M1254.8,603.4h12.7v14.1h-12.7V603.4z M1276.7,603.4
		h12.7v14.1h-12.7V603.4z M1174.6,641.7h12.7v14.1h-12.7V641.7z M1196.5,641.7h12.7v14.1h-12.7V641.7z M1254.8,641.7h12.7v14.1
		h-12.7V641.7z M1276.7,641.7h12.7v14.1h-12.7V641.7z M1174.6,678.2h12.7v14.1h-12.7V678.2z M1196.5,678.2h12.7v14.1h-12.7V678.2z
		 M1254.8,678.2h12.7v14.1h-12.7V678.2z M1276.7,678.2h12.7v14.1h-12.7V678.2z M1174.6,716.6h12.7v14.1h-12.7V716.6z M1196.5,716.6
		h12.7v14.1h-12.7V716.6z M1254.8,716.6h12.7v14.1h-12.7V716.6z M1276.7,716.6h12.7v14.1h-12.7V716.6z M1174.6,753.1h12.7v14.1
		h-12.7V753.1z M1196.5,753.1h12.7v14.1h-12.7V753.1z M1254.8,753.1h12.7v14.1h-12.7V753.1z M1276.7,753.1h12.7v14.1h-12.7V753.1z
		 M1174.6,791.4h12.7v14.1h-12.7V791.4z M1196.5,791.4h12.7v14.1h-12.7V791.4z M1254.8,791.4h12.7v14.1h-12.7V791.4z M1276.7,791.4
		h12.7v14.1h-12.7V791.4z"/>
</g>
<g>
	<path fill="none" stroke="#000000" stroke-width="4" stroke-miterlimit="10" d="M1491.9,619.3h9.3v14.8h-9.3V619.3z M1491.9,629.7
		h9.2 M1515.7,619.3h9.3v14.8h-9.3V619.3z M1515.7,629.7h9.3 M1539.6,619.3h9.3v14.8h-9.3V619.3z M1539.6,629.7h9.3 M1563.5,619.3
		h9.3v14.8h-9.3V619.3z M1563.5,629.7h9.3 M1587.4,619.3h9.3v14.8h-9.3V619.3z M1587.4,629.7h9.3 M1611.3,619.3h9.3v14.8h-9.3V619.3
		z M1611.3,629.7h9.3 M1635.2,619.3h9.3v14.8h-9.3V619.3z M1635.2,629.7h9.2 M1491.9,646.6h9.3v14.8h-9.3V646.6z M1491.9,656.9h9.2
		 M1515.7,646.6h9.3v14.8h-9.3V646.6z M1515.7,656.9h9.3 M1539.6,646.6h9.3v14.8h-9.3V646.6z M1539.6,656.9h9.3 M1563.5,646.6h9.3
		v14.8h-9.3V646.6z M1563.5,656.9h9.3"/>
	<g>
		<path fill="none" stroke="#000000" stroke-width="4" stroke-miterlimit="10" d="M1587.4,646.6h9.3v14.8h-9.3V646.6z M1587.4,656.9
			h9.3"/>
	</g>
	<g>
		<path fill="none" stroke="#000000" stroke-width="4" stroke-miterlimit="10" d="M1611.3,646.6h9.3v14.8h-9.3V646.6z M1611.3,656.9
			h9.3"/>
	</g>
	<g>
		<path fill="none" stroke="#000000" stroke-width="4" stroke-miterlimit="10" d="M1635.2,646.6h9.3v14.8h-9.3V646.6z M1635.2,656.9
			h9.2"/>
	</g>
	<g>
		<path fill="none" stroke="#000000" stroke-width="4" stroke-miterlimit="10" d="M1491.9,674.1h9.3v14.8h-9.3V674.1z M1491.9,684.4
			h9.2 M1515.7,674.1h9.3v14.8h-9.3V674.1z M1515.7,684.4h9.3 M1539.6,674.1h9.3v14.8h-9.3V674.1z M1539.6,684.4h9.3 M1563.5,674.1
			h9.3v14.8h-9.3V674.1z M1563.5,684.4h9.3"/>
		<g>
			<path fill="none" stroke="#000000" stroke-width="4" stroke-miterlimit="10" d="M1587.4,674.1h9.3v14.8h-9.3V674.1z
				 M1587.4,684.4h9.3"/>
		</g>
		<g>
			<path fill="none" stroke="#000000" stroke-width="4" stroke-miterlimit="10" d="M1611.3,674.1h9.3v14.8h-9.3V674.1z
				 M1611.3,684.4h9.3"/>
		</g>
		<g>
			<path fill="none" stroke="#000000" stroke-width="4" stroke-miterlimit="10" d="M1635.2,674.1h9.3v14.8h-9.3V674.1z
				 M1635.2,684.4h9.2"/>
		</g>
	</g>
	<g>
		<path fill="none" stroke="#000000" stroke-width="4" stroke-miterlimit="10" d="M1659.1,619.3h9.3v14.8h-9.3V619.3z M1659.1,629.7
			h9.2"/>
	</g>
	<g>
		<path fill="none" stroke="#000000" stroke-width="4" stroke-miterlimit="10" d="M1682.9,619.3h9.3v14.8h-9.3V619.3z M1682.9,629.7
			h9.3"/>
	</g>
	<g>
		<path fill="none" stroke="#000000" stroke-width="4" stroke-miterlimit="10" d="M1706.8,619.3h9.3v14.8h-9.3V619.3z M1706.8,629.7
			h9.3"/>
	</g>
	<g>
		<path fill="none" stroke="#000000" stroke-width="4" stroke-miterlimit="10" d="M1730.7,619.3h9.3v14.8h-9.3V619.3z M1730.7,629.7
			h9.3"/>
	</g>
	<g>
		<path fill="none" stroke="#000000" stroke-width="4" stroke-miterlimit="10" d="M1754.6,619.3h9.3v14.8h-9.3V619.3z M1754.6,629.7
			h9.3"/>
	</g>
	<g>
		<path fill="none" stroke="#000000" stroke-width="4" stroke-miterlimit="10" d="M1778.5,619.3h9.3v14.8h-9.3V619.3z M1778.5,629.7
			h9.2"/>
	</g>
	<g>
		<path fill="none" stroke="#000000" stroke-width="4" stroke-miterlimit="10" d="M1659.1,646.6h9.3v14.8h-9.3V646.6z M1659.1,656.9
			h9.2"/>
	</g>
	<g>
		<path fill="none" stroke="#000000" stroke-width="4" stroke-miterlimit="10" d="M1682.9,646.6h9.3v14.8h-9.3V646.6z M1682.9,656.9
			h9.3"/>
	</g>
	<g>
		<path fill="none" stroke="#000000" stroke-width="4" stroke-miterlimit="10" d="M1706.8,646.6h9.3v14.8h-9.3V646.6z M1706.8,656.9
			h9.3"/>
	</g>
	<g>
		<path fill="none" stroke="#000000" stroke-width="4" stroke-miterlimit="10" d="M1730.7,646.6h9.3v14.8h-9.3V646.6z M1730.7,656.9
			h9.3"/>
	</g>
	<g>
		<path fill="none" stroke="#000000" stroke-width="4" stroke-miterlimit="10" d="M1754.6,646.6h9.3v14.8h-9.3V646.6z M1754.6,656.9
			h9.3"/>
	</g>
	<g>
		<path fill="none" stroke="#000000" stroke-width="4" stroke-miterlimit="10" d="M1778.5,646.6h9.3v14.8h-9.3V646.6z M1778.5,656.9
			h9.2"/>
	</g>
	<g>
		<path fill="none" stroke="#000000" stroke-width="4" stroke-miterlimit="10" d="M1659.1,674.1h9.3v14.8h-9.3V674.1z M1659.1,684.4
			h9.2"/>
	</g>
	<g>
		<path fill="none" stroke="#000000" stroke-width="4" stroke-miterlimit="10" d="M1682.9,674.1h9.3v14.8h-9.3V674.1z M1682.9,684.4
			h9.3"/>
	</g>
	<g>
		<path fill="none" stroke="#000000" stroke-width="4" stroke-miterlimit="10" d="M1706.8,674.1h9.3v14.8h-9.3V674.1z M1706.8,684.4
			h9.3"/>
	</g>
	<g>
		<path fill="none" stroke="#000000" stroke-width="4" stroke-miterlimit="10" d="M1730.7,674.1h9.3v14.8h-9.3V674.1z M1730.7,684.4
			h9.3"/>
	</g>
	<g>
		<path fill="none" stroke="#000000" stroke-width="4" stroke-miterlimit="10" d="M1754.6,674.1h9.3v14.8h-9.3V674.1z M1754.6,684.4
			h9.3"/>
	</g>
	<g>
		<path fill="none" stroke="#000000" stroke-width="4" stroke-miterlimit="10" d="M1778.5,674.1h9.3v14.8h-9.3V674.1z M1778.5,684.4
			h9.2"/>
	</g>
</g>
<path fill="#FFFFFF" d="M1772,750.9h101.4v128.4H1772V750.9z M1975.3,750.9h101.4v128.4h-101.4L1975.3,750.9z"/>
<g>
	<path fill="none" stroke="#000000" stroke-width="4" stroke-miterlimit="10" d="M1873.3,749.9l-48.7-56.8h-2.7l-48.6,56.8"/>
	<path fill="#FFFFFF" stroke="#000000" stroke-width="4" stroke-miterlimit="10" d="M1973.8,749.9l-48.6-56.8h-2.7l-48.6,56.8"/>
	<path fill="none" stroke="#000000" stroke-width="4" stroke-miterlimit="10" d="M2075.9,749.9l-48.6-56.8h-2.7l-48.6,56.8"/>
	<path fill="#FFFFFF" stroke="#000000" stroke-width="4" stroke-miterlimit="10" d="M1771.7,749.9l-48.6-56.8h-2.7l-48.7,56.8"/>
	<path fill="none" stroke="#000000" stroke-width="4" stroke-miterlimit="10" d="M1671.8,750.2h404.6v129.2h-404.6L1671.8,750.2z
		 M1873.4,751.6v127.7 M1974.7,751.6v127.7 M1873.1,751.6v127.7 M1873.7,751.6v127.7 M1772,752.8v127.6 M1974.3,751.6v127.7"/>
	<path fill="none" stroke="#000000" stroke-width="4" stroke-miterlimit="10" d="M1985.7,833.2h20.1v45.6h-20.1V833.2z
		 M2027.8,766.7h24.9v37.1h-24.9L2027.8,766.7z M1992.9,766.7h16.9v37.1h-16.9V766.7z"/>
	<g>
		<path fill="none" stroke="#000000" stroke-width="4" stroke-miterlimit="10" d="M2020.7,827.7h42.4V853h-42.4L2020.7,827.7z
			 M2029.7,827.3v25.6 M2054.1,827.5v25.6"/>
	</g>
	<path fill="none" stroke="#000000" stroke-width="4" stroke-miterlimit="10" d="M1986,842h19.4 M1991.9,858.5h7.6 M1993.3,784.2
		h16.4 M2028.2,784.2h23.7 M2017.4,853.1h49v7.4h-49L2017.4,853.1z M2023.8,804.3h32.7v6.3h-32.7V804.3z M1989.1,804.3h24.3v6.3
		h-24.3V804.3z M1974.3,751.8v128.6 M1883.9,833.2h20.1v45.6h-20.1V833.2z M1926,766.7h24.9v37.1H1926V766.7z M1891.2,766.7h16.9
		v37.1h-16.9V766.7z"/>
	<g>
		<path fill="none" stroke="#000000" stroke-width="4" stroke-miterlimit="10" d="M1918.9,827.7h42.4V853h-42.4V827.7z
			 M1927.9,827.3v25.6 M1952.4,827.5v25.6"/>
	</g>
	<path fill="none" stroke="#000000" stroke-width="4" stroke-miterlimit="10" d="M1884.3,842h19.3 M1890.2,858.5h7.5 M1891.5,784.2
		h16.4 M1926.4,784.2h23.7 M1915.6,853.1h49v7.4h-49V853.1z M1922,804.3h32.7v6.3H1922V804.3z M1887.3,804.3h24.3v6.3h-24.3V804.3z
		 M1782.1,833.2h20.1v45.6h-20.1V833.2z M1824.2,766.7h24.9v37.1h-24.9V766.7z M1789.4,766.7h16.9v37.1h-16.9V766.7z"/>
	<g>
		<path fill="none" stroke="#000000" stroke-width="4" stroke-miterlimit="10" d="M1817.2,827.7h42.4V853h-42.4V827.7z
			 M1826.2,827.3v25.6 M1850.6,827.5v25.6"/>
	</g>
	<path fill="none" stroke="#000000" stroke-width="4" stroke-miterlimit="10" d="M1782.5,842h19.3 M1788.4,858.5h7.6 M1789.8,784.2
		h16.4 M1824.6,784.2h23.8 M1813.9,853.1h49v7.4h-49V853.1z M1820.2,804.3h32.7v6.3h-32.7V804.3z M1785.5,804.3h24.3v6.3h-24.3
		V804.3z M1770.8,751.8v128.6 M1872.6,751.8v128.6 M1681.5,833.2h20.1v45.6h-20.1V833.2z M1723.6,766.7h24.9v37.1h-24.9V766.7z
		 M1688.8,766.7h16.9v37.1h-16.9V766.7z"/>
	<g>
		<path fill="none" stroke="#000000" stroke-width="4" stroke-miterlimit="10" d="M1716.5,827.7h42.4V853h-42.4V827.7z
			 M1725.5,827.3v25.6 M1750,827.5v25.6"/>
	</g>
	<path fill="none" stroke="#000000" stroke-width="4" stroke-miterlimit="10" d="M1681.9,842h19.3 M1687.8,858.5h7.5 M1689.2,784.2
		h16.4 M1724,784.2h23.7 M1713.2,853.1h49v7.4h-49V853.1z M1719.6,804.3h32.7v6.3h-32.7V804.3z M1684.9,804.3h24.3v6.3h-24.3V804.3z
		"/>
</g>
<path fill="none" stroke="#000000" stroke-width="4" stroke-linejoin="round" stroke-miterlimit="10" d="M1008.9,540.8"/>
<path fill="none" stroke="#000000" stroke-width="4" stroke-linejoin="round" stroke-miterlimit="10" d="M647.9,799.6
	c5.7-25,25.4-80.2,97.3-67.4C714.4,672.2,779.5,545,889.5,577"/>
</svg>
