<svg xmlns="http://www.w3.org/2000/svg" width="484.4" height="208.2"><g fill="none" stroke="#050505" stroke-width="3.171" stroke-linecap="round" stroke-linejoin="round" stroke-miterlimit="10"><path d="M469.6 161.8s6.4-1.2 6.6-8.2M482.8 161.8s-6.4-1.2-6.6-8.2M482.8 161.8s-6.4 1.2-6.6 8.2M469.6 161.8s6.4 1.2 6.6 8.2"/></g><g fill="none" stroke="#050505" stroke-width="3.171" stroke-linecap="round" stroke-linejoin="round" stroke-miterlimit="10"><path d="M1.6 101.8s6.4-1.2 6.6-8.2M14.8 101.8s-6.4-1.2-6.6-8.2M14.8 101.8S8.4 103 8.2 110M1.6 101.8S8 103 8.2 110"/></g><g fill="none" stroke="#000" stroke-width="3.186" stroke-linecap="round" stroke-linejoin="round" stroke-miterlimit="10"><path d="M462.2 47v9.6M462.2 72.5v9.6M479.7 64.5h-9.5M454.2 64.5h-9.5M474.6 76.9l-6.8-6.7M456.6 58.9l-6.8-6.8M449.8 76.9l6.8-6.7M467.8 58.9l6.8-6.7"/></g><path fill="none" stroke="#000" stroke-width="3.903" stroke-miterlimit="10" d="M181.2 80.4v-7.8l57.9-69.5 57 69.8v7.5"/><g stroke="#000" stroke-width="3.348" stroke-miterlimit="10"><g fill="#FFF"><path d="M386.1 82.4v124.2h-98.6V75.7l49.7-59.6 49 59.9z"/><path d="M310.9 74.6h16.7v24.2h-16.7zM310.9 91.5h16.7M347.2 74.6h16.7v24.2h-16.7zM347.2 91.5h16.7M310.9 116.5h16.7v24.3h-16.7zM310.9 133.4h16.7M310.9 159.1h16.7v24.2h-16.7zM310.9 176h16.7"/><g><path d="M347.2 116.5h16.7v24.3h-16.7zM347.2 133.4h16.7"/></g><path d="M342.6 159.1h26.6v47.2h-26.6zM342.6 197.3h26.6"/></g><g fill="none"><path d="M287.5 206.6H189M189 75.7l49.6-59.6L287.5 76"/><path d="M212.3 74.6h16.8v24.2h-16.8zM212.3 91.5H229M248.6 74.6h16.7v24.2h-16.7zM248.6 91.5h16.7M212.3 116.5h16.8v24.3h-16.8zM212.3 133.4H229M212.3 159.1h16.8v24.2h-16.8zM212.3 176H229"/><g><path d="M248.6 116.5h16.7v24.3h-16.7zM248.6 133.4h16.7"/></g><path d="M244 159.1h26.6v38.3H244z"/><path d="M244 197.3h26.6v9H244z"/></g><g fill="#FFF"><path d="M188.9 82.4v124.2H90.4V75.7L140 16.1 189 76z"/><path d="M113.7 74.6h16.7v24.2h-16.7zM113.7 91.5h16.7M150 74.6h16.7v24.2H150zM150 91.5h16.7M113.7 116.5h16.7v24.3h-16.7zM113.7 133.4h16.7M113.7 159.1h16.7v24.2h-16.7zM113.7 176h16.7"/><g><path d="M150 116.5h16.7v24.3H150zM150 133.4h16.7"/></g><path d="M145.4 159.1H172v47.2h-26.6zM145.4 197.3H172"/></g></g><path fill="#FFF" stroke="#000" stroke-width="3.903" stroke-miterlimit="10" d="M188.9 84.4l.1-6.4-49-59.9-49.6 59.6v6.7h-8.2v-7.8l57.9-69.5 57 69.8v7.5zM385.9 84.4l.1-6.4-49-59.9-49.6 59.6v6.7h-8.2v-7.8l57.9-69.5 57 69.8v7.5z"/></svg>