<svg xmlns="http://www.w3.org/2000/svg" width="447.3" height="301.5"><g fill="none" stroke="#050505" stroke-width="3.171" stroke-linecap="round" stroke-linejoin="round" stroke-miterlimit="10"><path d="M367.6 226.3s6.4-1.2 6.6-8.2M380.8 226.3s-6.4-1.2-6.6-8.2M380.8 226.3s-6.4 1.2-6.6 8.2M367.6 226.3s6.4 1.2 6.6 8.2"/></g><g fill="none" stroke="#050505" stroke-width="3.171" stroke-linecap="round" stroke-linejoin="round" stroke-miterlimit="10"><path d="M1.6 128.3s6.4-1.2 6.6-8.2M14.8 128.3s-6.4-1.2-6.6-8.2M14.8 128.3s-6.4 1.2-6.6 8.2M1.6 128.3s6.4 1.2 6.6 8.2"/></g><g fill="none" stroke="#000" stroke-width="3.186" stroke-linecap="round" stroke-linejoin="round" stroke-miterlimit="10"><path d="M428.2 81.5v9.6M428.2 107v9.6M445.7 99.1h-9.5M420.2 99.1h-9.5M440.6 111.4l-6.8-6.7M422.6 93.4l-6.8-6.7M415.8 111.4l6.8-6.7M433.8 93.4l6.8-6.7"/></g><path fill="#FFF" stroke="#000" stroke-width="3.348" stroke-linecap="round" stroke-linejoin="round" stroke-miterlimit="10" d="M83.6 169.3l97.6-3.3 105 20c12.7 3.8 25.7-1.7 28.9-12.2l7.3-24.2 7.3-24.2c3.2-10.5-4.7-22.3-17.4-26.1l-98.7-41.1-79.7-56.5-50.3 167.6z"/><path fill="none" stroke="#000" stroke-width="3.348" stroke-linecap="round" stroke-linejoin="round" stroke-miterlimit="10" d="M266.3 81.6L199 292.7l24 7.1 67.2-112.2M229.1 196.4l-13.5-4.1 4.8-18"/><path fill="#FFF" stroke="#000" stroke-width="3.348" stroke-linecap="round" stroke-linejoin="round" stroke-miterlimit="10" d="M293.6 113.2l-14.9-4.4M290.4 123.8l-14.8-4.5M287.2 134.3l-14.8-4.4M284.1 144.9l-14.9-4.5M280.9 155.4l-14.8-4.5M277.8 165.9l-14.9-4.4"/><g fill="#FFF" stroke="#000" stroke-width="3.348" stroke-linecap="round" stroke-linejoin="round" stroke-miterlimit="10"><path d="M111.7 29.3L103 58.1M88.6 106.1L80 135M43 66.3l28.8 8.6M47.3 108.3L73.8 94M83.9 60L69.7 33.5"/></g><path fill="none" stroke="#000" stroke-width="3.348" stroke-linecap="round" stroke-linejoin="round" stroke-miterlimit="10" d="M112 72.9c-7.4-2.2-15.2 2-17.4 9.4-2.2 7.4 2 15.2 9.4 17.4"/></svg>